<?xml version="1.0" encoding="UTF-8"?>
<svg width="191px" height="67px" viewBox="0 0 191 67" version="1.1" xmlns="http://www.w3.org/2000/svg" xmlns:xlink="http://www.w3.org/1999/xlink">
    <!-- Generator: Sketch 52.5 (67469) - http://www.bohemiancoding.com/sketch -->
    <title>Group 3</title>
    <desc>Created with Sketch.</desc>
    <defs>
        <path d="M110.982,0.1319 C108.33,0.5019 105.827,1.5479 103.359,2.5839 C102.154,3.0889 100.868,3.6639 100.212,4.7929 C99.421,6.1529 99.779,7.9239 99.138,9.3609 C98.482,10.8289 96.914,11.6879 96.095,13.0719 C94.627,15.5569 95.599,19.8879 93.749,22.1029 C90.589,18.9009 94.072,12.6809 91.148,9.2599 C90.127,8.0649 88.546,7.5349 87.031,7.1109 C83.889,6.2309 80.597,5.5799 77.372,6.0789 C74.147,6.5769 70.977,8.4109 69.611,11.3729 C67.959,14.9519 69.223,19.1049 69.992,22.9699 C70.763,26.8349 70.663,31.5809 67.409,33.8039 C66.035,34.7439 64.332,35.0369 62.689,35.3069 C61.105,35.5669 59.562,33.5829 58.02,31.5969 C56.478,29.6129 54.935,27.6269 53.352,27.8879 C49.785,28.4739 43.477,41.0579 42.409,37.6049 C38.477,24.8849 34.466,35.4089 31.98,37.9869 C31.98,37.9869 13.37,49.0819 0,66.0979 L190.824,66.0979 C190.824,66.0979 172.188,33.7169 161.046,23.3699 L154.93,21.2909 C153.435,20.7819 152.053,19.7989 150.475,19.7699 C148.15,19.7239 146.37,21.6879 144.508,23.0819 C138.692,27.4419 129.076,26.6779 124.672,20.8959 C124.419,17.4309 123.926,13.9829 123.197,10.5869 C122.484,7.2659 121.38,3.7439 118.649,1.7259 C116.993,0.5039 114.92,-0.0001 112.846,-0.0001 C112.221,-0.0001 111.596,0.0459 110.982,0.1319" id="path-1"></path>
    </defs>
    <g id="Page-1" stroke="none" stroke-width="1" fill="none" fill-rule="evenodd">
        <g id="Group-3">
            <mask id="mask-2" fill="white">
                <use xlink:href="#path-1"></use>
            </mask>
            <g id="Clip-2"></g>
            <path d="M110.982,0.1319 C108.33,0.5019 105.827,1.5479 103.359,2.5839 C102.154,3.0889 100.868,3.6639 100.212,4.7929 C99.421,6.1529 99.779,7.9239 99.138,9.3609 C98.482,10.8289 96.914,11.6879 96.095,13.0719 C94.627,15.5569 95.599,19.8879 93.749,22.1029 C90.589,18.9009 94.072,12.6809 91.148,9.2599 C90.127,8.0649 88.546,7.5349 87.031,7.1109 C83.889,6.2309 80.597,5.5799 77.372,6.0789 C74.147,6.5769 70.977,8.4109 69.611,11.3729 C67.959,14.9519 69.223,19.1049 69.992,22.9699 C70.763,26.8349 70.663,31.5809 67.409,33.8039 C66.035,34.7439 64.332,35.0369 62.689,35.3069 C61.105,35.5669 59.562,33.5829 58.02,31.5969 C56.478,29.6129 54.935,27.6269 53.352,27.8879 C49.785,28.4739 43.477,41.0579 42.409,37.6049 C38.477,24.8849 34.466,35.4089 31.98,37.9869 C31.98,37.9869 13.37,49.0819 0,66.0979 L190.824,66.0979 C190.824,66.0979 172.188,33.7169 161.046,23.3699 L154.93,21.2909 C153.435,20.7819 152.053,19.7989 150.475,19.7699 C148.15,19.7239 146.37,21.6879 144.508,23.0819 C138.692,27.4419 129.076,26.6779 124.672,20.8959 C124.419,17.4309 123.926,13.9829 123.197,10.5869 C122.484,7.2659 121.38,3.7439 118.649,1.7259 C116.993,0.5039 114.92,-0.0001 112.846,-0.0001 C112.221,-0.0001 111.596,0.0459 110.982,0.1319" id="Fill-1" fill="#000712" mask="url(#mask-2)"></path>
        </g>
    </g>
</svg>