<?xml version="1.0" encoding="UTF-8"?>
<svg width="535px" height="239px" viewBox="0 0 535 239" version="1.1" xmlns="http://www.w3.org/2000/svg" xmlns:xlink="http://www.w3.org/1999/xlink">
    <!-- Generator: Sketch 52.5 (67469) - http://www.bohemiancoding.com/sketch -->
    <title>howdy</title>
    <desc>Created with Sketch.</desc>
    <defs>
        <linearGradient x1="39.8811962%" y1="71.7468354%" x2="59.8115526%" y2="25.721519%" id="linearGradient-1">
            <stop stop-color="#D4145A" offset="0%"></stop>
            <stop stop-color="#E1196A" offset="29%"></stop>
            <stop stop-color="#EA1D75" offset="63%"></stop>
            <stop stop-color="#ED1E79" offset="100%"></stop>
        </linearGradient>
    </defs>
    <g id="Page-1" stroke="none" stroke-width="1" fill="none" fill-rule="evenodd">
        <g id="Krabby-Desktop" transform="translate(-489.000000, -195.000000)">
            <g id="howdy" transform="translate(489.000000, 195.000000)">
                <g id="Group" transform="translate(427.000000, 0.000000)">
                    <polygon id="Shape" fill="#D4145A" points="50.3197826 174.806856 27.1878261 162.258361 27.3052174 99.229097 50.4371739 111.771739"></polygon>
                    <polygon id="Shape" fill="#D4145A" points="66.7956522 67.020903 43.6636957 54.472408 55.9663043 4.01505017 79.0982609 16.5635452"></polygon>
                    <polygon id="Shape" fill="#ED1E79" points="79.0982609 16.5635452 55.9663043 4.01505017 84.6273913 0 107.759348 12.548495"></polygon>
                    <polygon id="Shape" fill="#FFFFFF" points="107.759348 12.548495 80.8767391 107.51087 80.7593478 170.540134 50.3197826 174.806856 50.4371739 111.771739 23.3608696 24.3770903 53.2604348 20.1864548 66.7956522 67.020903 79.0982609 16.5635452"></polygon>
                    <polygon id="Shape" fill="#D4145A" points="50.4371739 111.771739 27.3052174 99.229097 0.228913043 11.8285953 23.3608696 24.3770903"></polygon>
                    <polygon id="Shape" fill="#ED1E79" points="23.3608696 24.3770903 0.228913043 11.8285953 30.1284783 7.63795987 53.2604348 20.1864548"></polygon>
                </g>
                <g id="Group" transform="translate(335.000000, 19.000000)">
                    <g id="Shape" transform="translate(37.118919, 108.969697)" fill="#D4145A">
                        <path d="M23.3495676,35.7373737 L0.129621622,23.1765657 C4.74886486,22.5321212 8.15437838,21.3252525 10.3461622,19.5559596 C12.5160534,17.8285259 13.9985471,15.3910482 14.5294054,12.6779798 C15.1303784,9.86585859 15.4328288,5.79023569 15.4367568,0.451111111 L38.6567027,13.0119192 C38.6567027,18.3471381 38.3542523,22.4227609 37.7493514,25.2387879 C37.2170388,27.9512984 35.7348271,30.3883124 33.5661081,32.1167677 C31.3743243,33.8977778 27.9688108,35.1046465 23.3495676,35.7373737 Z" id="Path"></path>
                        <g id="Group">
                            <path d="M23.3495676,35.7373737 L0.129621622,23.1765657 C2.15740676,22.9143042 4.15447599,22.4551417 6.09221622,21.8056566 L29.3121622,34.3664646 C27.374422,35.0159498 25.3773527,35.4751123 23.3495676,35.7373737" id="Path"></path>
                            <path d="M29.3121622,34.3840404 L6.09221622,21.8232323 C7.62742424,21.3167338 9.06561702,20.5561464 10.3461622,19.5735354 C11.9896811,18.2697104 13.246177,16.5464794 13.9814595,14.5878788 L37.2014054,27.1486869 C36.4661229,29.1072875 35.209627,30.8305185 33.5661081,32.1343434 C32.285563,33.1169545 30.8473702,33.8775419 29.3121622,34.3840404" id="Path"></path>
                            <path d="M37.2014054,27.1486869 L13.9814595,14.5878788 C14.2098029,13.9710821 14.3929303,13.338654 14.5294054,12.6955556 C14.7120541,11.8343434 14.8711351,10.850101 14.9948649,9.76626263 L38.2148108,22.3270707 C38.0910811,23.4284848 37.932,24.4127273 37.7493514,25.2563636 C37.6128763,25.8994621 37.4297488,26.5318901 37.2014054,27.1486869" id="Path"></path>
                            <path d="M38.2148108,22.3094949 L14.9948649,9.74868687 C15.313556,6.6657786 15.4610771,3.56774441 15.4367568,0.468686869 L38.6567027,13.0294949 C38.6810231,16.1285525 38.5335019,19.2265867 38.2148108,22.3094949" id="Path"></path>
                        </g>
                    </g>
                    <polygon id="Shape" fill="#FF2A9F" points="55.4898378 145.41596 32.2698919 132.855152 37.2485405 132.163838 60.4684865 144.724646"></polygon>
                    <polygon id="Shape" fill="#D4145A" points="75.7815135 121.999192 52.5556757 109.438384 52.6852973 42.1525253 75.9052432 54.7133333"></polygon>
                    <g id="Shape" transform="translate(47.724324, 25.777778)" fill="#D4145A">
                        <path d="M0.329945946,0.228484848 L23.5675676,12.7892929 C25.4556025,13.8272512 26.7971802,15.6294257 27.2441081,17.7280808 C27.8843604,20.2394613 28.2025225,23.9752862 28.1986305,28.9355556 L4.96097297,16.4040404 C4.96097297,11.443771 4.64281081,7.70794615 4.00648649,5.19656566 C3.56517799,3.0880112 2.22322852,1.27464525 0.329945946,0.228484848 Z" id="Path"></path>
                        <g id="Group">
                            <path d="M28.1809189,28.9355556 L4.96097297,16.4040404 C5.00201232,13.5281151 4.84650107,10.6527398 4.49551351,7.79777778 L27.7213514,20.3585859 C28.0670094,23.2139717 28.2205401,26.089121 28.1809189,28.9648485" id="Path"></path>
                            <path d="M27.7213514,20.3292929 L4.49551351,7.76848485 C4.3843557,6.89256486 4.2210601,6.02396975 4.00648649,5.16727273 C3.55737844,3.06959411 2.21640492,1.2682312 0.329945946,0.228484848 L23.5675676,12.7892929 C25.4556025,13.8272512 26.7971802,15.6294257 27.2441081,17.7280808 C27.4580109,18.5852361 27.623245,19.4536792 27.739027,20.3292929" id="Path"></path>
                        </g>
                    </g>
                    <g id="Shape" transform="translate(37.118919, 0.000000)" fill="#ED1E79">
                        <path d="M33.4718378,4.19474747 L56.6976757,16.7555556 C55.308811,16.0116138 53.8579465,15.3882893 52.3612432,14.8925253 C45.3734595,12.5490909 35.6655856,12.2542088 23.2376216,14.0078788 L0,1.44707071 C12.4436757,-0.298787879 22.1574415,4.4408921e-16 29.1412973,2.34343434 C30.6361435,2.83430946 32.0851359,3.4537561 33.4718378,4.19474747 Z" id="Path"></path>
                        <g id="Group">
                            <path d="M23.2376216,14.0078788 L0,1.44707071 C3.63726126,0.939326597 7.04081081,0.605387203 10.2106486,0.445252525 L33.4482703,13.0060606 C30.2784324,13.1622896 26.8748829,13.496229 23.2376216,14.0078788" id="Path"></path>
                            <path d="M33.4482703,13.0060606 L10.2283243,0.445252525 C16.8350991,0.10936027 22.4284685,0.529225589 27.0084324,1.70484848 L50.2283784,14.2656566 C45.6444865,13.0939394 40.0511171,12.6740741 33.4482703,13.0060606" id="Path"></path>
                            <path d="M50.2283784,14.2656566 L27.0084324,1.70484848 C27.7449189,1.89232323 28.4519459,2.10323232 29.1412973,2.33171717 C30.6365344,2.82636397 32.0855377,3.44973585 33.4718378,4.19474747 L56.6976757,16.7555556 C55.308811,16.0116138 53.8579465,15.3882893 52.3612432,14.8925253 C51.6777838,14.6640404 50.9648649,14.4531313 50.2283784,14.2656566" id="Path"></path>
                        </g>
                    </g>
                    <path d="M104.286486,28.3555556 C107.169585,34.9952862 108.601315,44.2264646 108.581676,56.0490909 L108.475622,112.098182 C108.475622,124.03798 107.008541,133.771044 104.074378,141.297374 C101.251371,148.706037 96.059817,154.987957 89.2975135,159.177778 C82.3686486,163.575623 72.7452254,166.635758 60.4272432,168.358182 L23.6618378,173.496162 L23.9505405,19.0931313 L60.3624324,14.0078788 C72.7943243,12.2698316 82.5021984,12.5647138 89.4860541,14.8925253 C96.4699097,17.2203367 101.403388,21.7080134 104.286486,28.3555556 Z M75.7756216,121.999192 L75.9052432,54.7133333 C75.9052432,49.753064 75.5870811,46.0172391 74.9507568,43.5058586 C74.4631727,41.1869615 72.8817712,39.2437385 70.7027027,38.2858586 C68.5109189,37.3211448 65.1054054,37.1629629 60.4861622,37.8113131 L55.6901622,38.4791919 L55.4898378,145.41596 L60.4684865,144.724646 C65.0877297,144.076296 68.4932432,142.869427 70.685027,141.10404 C72.8537458,139.375585 74.3359579,136.938571 74.8682703,134.226061 C75.4692432,131.413939 75.7716935,127.338316 75.7756216,121.999192 Z" id="Shape" fill="#FFFFFF" fill-rule="nonzero"></path>
                    <polygon id="Shape" fill="#ED1E79" points="23.9446486 19.0931313 0.724702703 6.53818182 37.1365946 1.44707071 60.3565405 14.0078788"></polygon>
                    <polygon id="Shape" fill="#D4145A" points="23.6559459 173.496162 0.436 160.935354 0.724702703 6.53818182 23.9446486 19.0931313"></polygon>
                </g>
                <g id="Group" transform="translate(206.000000, 27.000000)">
                    <polygon id="Shape" fill="#D4145A" points="102.108205 107.369903 78.8664103 94.8111974 87.7479487 4.21747573 110.989744 16.7761812"></polygon>
                    <polygon id="Shape" fill="#D4145A" points="92.3892308 173.701424 69.1474359 161.142718 57.0517949 69.6644984 80.2935897 82.2232039"></polygon>
                    <polygon id="Shape" fill="#ED1E79" points="110.989744 16.7761812 87.7479487 4.21747573 114.416154 0.492038835 137.657949 13.0507443"></polygon>
                    <polygon id="Shape" fill="#D4145A" points="58.7325641 114.00657 35.4907692 101.447864 46.5012821 10.1570874 69.7430769 22.7157929"></polygon>
                    <polygon id="Shape" fill="#ED1E79" points="69.7430769 22.7157929 46.5012821 10.1570874 67.6612821 7.20485437 90.9030769 19.7635599"></polygon>
                    <polygon id="Shape" fill="#D4145A" points="40.4741026 180.947282 17.2323077 168.394434 0.10025641 16.4481553 23.3420513 29.0068608"></polygon>
                    <polygon id="Shape" fill="#ED1E79" points="23.3420513 29.0068608 0.10025641 16.4481553 27.1282051 12.6758576 50.37 25.2345631"></polygon>
                    <polygon id="Shape" fill="#FFFFFF" points="137.657949 13.0507443 120.124872 169.829547 92.3892308 173.701424 80.2935897 82.2232039 68.5694872 177.028544 40.4741026 180.947282 23.3420513 29.0068608 50.37 25.2345631 58.7325641 114.00657 69.7430769 22.7157929 90.9030769 19.7635599 102.108205 107.369903 110.989744 16.7761812"></polygon>
                </g>
                <g id="Group" transform="translate(105.000000, 48.000000)">
                    <g id="Shape" transform="translate(36.861702, 116.391892)" fill="#D4145A">
                        <path d="M23.4335106,31.7785135 L0.374468085,19.1752703 C1.88404255,19.9982432 3.90070922,20.2333784 6.42446809,19.8806757 C10.8946809,19.2458108 13.837766,17.2040541 15.2537234,13.7554054 C16.6696809,10.2989189 17.3835106,5.77844595 17.3952128,0.164594595 L40.4542553,12.7678378 C40.4542553,18.3758108 39.7404255,22.9060811 38.312766,26.3586486 C36.8851064,29.8112162 33.9420213,31.8510135 29.4835106,32.4780405 C26.9597518,32.8385811 24.9430851,32.6054054 23.4335106,31.7785135 Z" id="Path"></path>
                        <g id="Group">
                            <path d="M23.4335106,31.7785135 L0.374468085,19.1752703 C0.848214646,19.4314504 1.35119203,19.6288431 1.87234043,19.7631081 L24.937234,32.3663514 C24.4138948,32.2331015 23.9088602,32.0356726 23.4335106,31.7785135" id="Path"></path>
                            <path d="M24.937234,32.360473 L1.87234043,19.7572297 C2.88485792,20.0019584 3.92843904,20.0911462 4.96755319,20.0217568 L28.0265957,32.625 C26.9894151,32.6947023 25.9477152,32.6055066 24.937234,32.360473" id="Path"></path>
                            <path d="M28.0265957,32.625 L4.96755319,20.0217568 C5.4356383,19.9982432 5.9212766,19.9512162 6.42446809,19.8806757 C7.44589415,19.7405869 8.4512192,19.5003876 9.42606383,19.1635135 L32.4851064,31.7432432 C31.5110612,32.0816046 30.5053908,32.3199169 29.4835106,32.454527 C29.0006188,32.5279179 28.5143714,32.5769659 28.0265957,32.6014865" id="Path"></path>
                            <path d="M32.4851064,31.7432432 L9.42606383,19.1635135 C12.0793214,18.323721 14.2234131,16.3419481 15.2771277,13.7554054 L15.5228723,13.1205405 L38.5819149,25.7179054 L38.3361702,26.3586486 C37.2824556,28.9451914 35.138364,30.9269642 32.4851064,31.7667568" id="Path"></path>
                            <path d="M38.5585106,25.7179054 L15.4994681,13.1205405 C16.3030765,10.8671762 16.8315838,8.52417747 17.0734043,6.14290541 L40.1324468,18.7402703 C39.8912545,21.1216456 39.3627303,23.46472 38.5585106,25.7179054" id="Path"></path>
                            <path d="M40.1324468,18.7402703 L17.0734043,6.14290541 C17.2913711,4.15770824 17.398808,2.16182991 17.3952128,0.164594595 L40.4542553,12.7678378 C40.458023,14.7631226 40.3505854,16.7570542 40.1324468,18.7402703" id="Path"></path>
                        </g>
                    </g>
                    <polygon id="Shape" fill="#D4145A" points="77.3159574 129.15973 54.2569149 116.556486 54.3914894 41.9598649 77.456383 54.5572297"></polygon>
                    <g id="Shape" transform="translate(49.148936, 25.864865)" fill="#D4145A">
                        <path d="M0.585106383,0.199864865 L23.6441489,12.8031081 C24.7841111,13.4319744 25.6897177,14.4160808 26.2244681,15.6070946 C27.6326241,18.5972297 28.3289007,22.9589865 28.3135544,28.6923649 L5.26595745,16.095 C5.26595745,10.3537838 4.56968085,5.99006757 3.17712766,3.00385135 C2.63934845,1.81104901 1.7294329,0.826724172 0.585106383,0.199864865 Z" id="Path"></path>
                        <g id="Group">
                            <path d="M28.3015957,28.6923649 L5.26595745,16.095 C5.28810791,13.8114845 5.15321231,11.5291593 4.86223404,9.26432432 L27.9212766,21.8675676 C28.2120787,24.1304494 28.3469741,26.4108075 28.325,28.6923649" id="Path"></path>
                            <path d="M27.8978723,21.8675676 L4.83882979,9.26432432 C4.59300797,7.10436827 4.02494083,4.99389681 3.1537234,3.00385135 C2.61897301,1.81283753 1.71336646,0.82873115 0.573404255,0.199864865 L23.6324468,12.8031081 C24.772409,13.4319744 25.6780156,14.4160808 26.212766,15.6070946 C27.086612,17.5962072 27.6547889,19.7070863 27.8978723,21.8675676" id="Path"></path>
                        </g>
                    </g>
                    <g id="Shape" transform="translate(0.000000, 115.216216)" fill="#D4145A">
                        <path d="M39.8515957,54.9569595 L16.7925532,42.3537162 C14.3188594,41.0163339 12.1113328,39.2329021 10.2803191,37.0925676 C3.71152482,29.4154054 0.442730497,17.1609459 0.473714853,0.329189189 L23.5329787,12.9324324 C23.5017731,29.7837838 26.7705674,42.0402027 33.3393617,49.7016892 C35.1725592,51.8381836 37.3797114,53.6193207 39.8515957,54.9569595 Z" id="Path"></path>
                        <g id="Group">
                            <path d="M39.8515957,54.9569595 L16.7925532,42.3537162 C14.3188594,41.0163339 12.1113328,39.2329021 10.2803191,37.0925676 C5.66578014,31.6962162 2.67978723,24.0347297 1.32234043,14.1081081 L24.381383,26.7113514 C25.7388298,36.6222973 28.7248227,44.2759459 33.3393617,49.6722973 C35.172043,51.8108998 37.3792278,53.5940556 39.8515957,54.9334459" id="Path"></path>
                            <path d="M24.381383,26.7348649 L1.32234043,14.1081081 C0.726134376,9.53216105 0.442669277,4.92055303 0.47393617,0.305675676 L23.5329787,12.9324324 C23.5015362,17.5492681 23.7850014,22.162843 24.381383,26.7407432" id="Path"></path>
                        </g>
                    </g>
                    <polygon id="Shape" fill="#D4145A" points="23.5329787 128.148649 0.47393617 115.545405 0.579255319 57.9725676 23.6382979 70.5758108"></polygon>
                    <g id="Shape" transform="translate(0.585106, 0.000000)">
                        <path d="M69.7914894,4.24418919 L92.8505319,16.8474324 C86.262234,13.2459459 77.3159574,12.2427027 66.0117021,13.8377027 C50.6078014,16.0127027 39.6039007,21.8048648 33,31.2141892 C26.3960993,40.6235135 23.0804965,53.7518919 23.0531915,70.5993243 L0,57.9725676 C0.035106383,41.1447297 3.35070922,28.0163514 9.94680851,18.5874324 C16.5429078,9.15851351 27.5448582,3.37418919 42.9526596,1.23445946 C54.2569149,-0.372297297 63.2031915,0.630945944 69.7914894,4.24418919 Z" id="Path" fill="#D4145A"></path>
                        <g id="Group">
                            <path d="M23.0531915,70.5758108 L-7.78491041e-16,57.9725676 C-0.00237393681,53.891397 0.222267078,49.8132821 0.67287234,45.7572973 L23.7319149,58.3605405 C23.2813096,62.4165252 23.0566686,66.4946402 23.0590426,70.5758108" id="Path" fill="#D4145A"></path>
                            <path d="M23.7260638,58.3605405 L0.667021277,45.7572973 C1.26059291,40.0932347 2.53770157,34.5227344 4.47021277,29.1685135 L27.5292553,41.7717568 C25.5967441,47.1259776 24.3196355,52.6964779 23.7260638,58.3605405" id="Path" fill="#D4145A"></path>
                            <path d="M9.94680851,18.6109459 C7.68019116,21.8883247 5.84159206,25.4443975 4.47606383,29.192027 L27.5351064,41.7952703 C28.8993889,38.0470894 30.7380685,34.490861 33.0058511,31.2141892 L33.0409574,31.1612838 C25.2473404,27.1875 17.4829787,22.9315541 9.97021277,18.5756757 L9.94680851,18.6109459 Z" id="Path" fill="url(#linearGradient-1)"></path>
                            <path d="M52.6595745,17.012027 L29.5946809,4.40878378 C21.0131205,7.45378378 14.4696809,12.1760811 9.9643617,18.5756757 C17.4771277,22.9139189 25.2414894,27.1875 33.0351064,31.1612838 C37.5365248,24.7734459 44.0780142,20.057027 52.6595745,17.012027 Z" id="Path" fill="#ED1E79"></path>
                            <path d="M52.6595745,17.012027 L29.5946809,4.40878378 C33.9313318,2.90750884 38.4061005,1.84414681 42.9526596,1.23445946 C45.2930851,0.911148649 47.4989362,0.68777027 49.6170213,0.581959459 L72.6760638,13.1852027 C70.5579787,13.2910135 68.3365246,13.5085135 66.0117021,13.8377027 C61.4651429,14.4473901 56.9903743,15.5107521 52.6537234,17.012027" id="Path" fill="#ED1E79"></path>
                            <path d="M72.6760638,13.1852027 L49.6170213,0.587837838 C54.2253695,0.283650628 58.8530221,0.680006631 63.343617,1.76351351 L86.4026596,14.3667568 C81.9125397,13.2803038 77.2844407,12.8839096 72.6760638,13.1910811" id="Path" fill="#ED1E79"></path>
                            <path d="M86.4026596,14.3373649 L63.343617,1.76351351 C65.5837214,2.330681 67.7454894,3.17375738 69.7797872,4.27358108 L92.8388298,16.8768243 C90.8045319,15.7770006 88.6427639,14.9339242 86.4026596,14.3667568" id="Path" fill="#ED1E79"></path>
                        </g>
                    </g>
                    <path d="M99.825,21.9557432 C106.456205,29.5623649 109.754255,41.7110135 109.719149,58.4016892 L109.607979,115.968649 C109.580674,132.796487 106.235816,145.985608 99.5734043,155.536014 C92.9109927,165.086419 81.8212766,170.953041 66.3042553,173.135878 C50.9003546,175.310878 39.9120567,172.567635 33.3393617,164.906149 C26.7666667,157.244662 23.4978723,144.992162 23.5329787,128.148649 L23.6382979,70.5816892 C23.6734043,53.7538513 26.9890071,40.625473 33.5851064,31.1965541 C40.1812057,21.7676351 51.1851064,15.975473 66.5968085,13.8200676 C82.1138298,11.6411486 93.1898936,14.3530406 99.825,21.9557432 Z M77.3159574,129.15973 L77.4505319,54.5572297 C77.4505319,48.8199324 76.7542553,44.4581757 75.3617021,41.4719595 C73.9691489,38.4857432 71.0319149,37.3100676 66.55,37.9449324 C62.3177307,38.544527 59.4916669,40.5706081 58.0718085,44.0231757 C56.6519503,47.4757432 55.9400709,52.0040541 55.9361702,57.6081081 L55.7957447,132.210608 C55.7957447,137.818581 56.435461,142.156824 57.7148936,145.225338 C59.0021277,148.287973 61.875,149.516554 66.3452128,148.881689 C70.8154255,148.246824 73.7526596,146.207027 75.1744681,142.762297 C76.5962766,139.317568 77.3042553,134.779459 77.3159574,129.171486 L77.3159574,129.15973 Z" id="Shape" fill="#FFFFFF" fill-rule="nonzero"></path>
                </g>
                <g id="Group" transform="translate(0.000000, 59.000000)">
                    <polygon id="Shape" fill="#D4145A" points="76.7981183 171.985016 53.7030108 159.414332 53.8260753 91.8820847 76.9211828 104.452769"></polygon>
                    <polygon id="Shape" fill="#ED1E79" points="54.880914 83.1400651 31.7858065 70.5693811 53.872957 67.4618893 76.9680645 80.0325733"></polygon>
                    <polygon id="Shape" fill="#D4145A" points="76.9680645 80.0325733 53.872957 67.4618893 53.9901613 4.89576547 77.0852688 17.4664495"></polygon>
                    <polygon id="Shape" fill="#ED1E79" points="77.0852688 17.4664495 53.9901613 4.89576547 85.7876882 0.422149837 108.882796 12.9928339"></polygon>
                    <polygon id="Shape" fill="#ED1E79" points="23.3822581 25.018241 0.287150538 12.447557 31.9030108 7.99739414 54.9981183 20.5680782"></polygon>
                    <polygon id="Shape" fill="#D4145A" points="23.0951075 179.536808 0 166.966124 0.287150538 12.447557 23.3822581 25.018241"></polygon>
                    <polygon id="Shape" fill="#FFFFFF" points="108.882796 12.9928339 108.595645 167.511401 76.7981183 171.985016 76.9211828 104.452769 54.8398925 107.560261 54.7109677 175.092508 23.0951075 179.536808 23.3822581 25.018241 54.9981183 20.5680782 54.880914 83.1400651 76.9680645 80.0325733 77.0852688 17.4664495"></polygon>
                </g>
            </g>
        </g>
    </g>
</svg>