<?xml version="1.0" encoding="UTF-8"?>
<svg width="100px" height="113px" viewBox="0 0 100 113" version="1.1" xmlns="http://www.w3.org/2000/svg" xmlns:xlink="http://www.w3.org/1999/xlink">
    <!-- Generator: Sketch 50.2 (55047) - http://www.bohemiancoding.com/sketch -->
    <title>icon-2-ideate</title>
    <desc>Created with Sketch.</desc>
    <defs></defs>
    <g id="Page-1" stroke="none" stroke-width="1" fill="none" fill-rule="evenodd" stroke-linecap="round">
        <g id="Case-Study---ROBIT" transform="translate(-1076.000000, -3034.000000)" stroke="#FFFFFF">
            <g id="Group-11" transform="translate(236.000000, 2959.000000)">
                <g id="Group-8" transform="translate(628.666667, 0.000000)">
                    <g id="icon-2-ideate" transform="translate(214.000000, 77.000000)">
                        <path d="M51.5907946,72.1669565 C51.5907946,72.1669565 54.0851816,46.3930435 58.5750782,43.0226087 C63.0649747,39.6521739 67.7544222,52.1426087 47.5,52.1426087 C27.2455778,52.1426087 31.984913,39.6521739 36.4249218,43.0226087 C40.8649307,46.3930435 43.4092054,72.1669565 43.4092054,72.1669565" id="Shape" stroke-width="2.49181371" stroke-linejoin="round"></path>
                        <path d="M40.0168391,108.101739 L54.9831609,108.101739" id="Shape" stroke-width="4.98362742" stroke-linejoin="round"></path>
                        <path d="M37.5224521,97.6434783 L57.4775479,97.6434783" id="Shape" stroke-width="4.98362742" stroke-linejoin="round"></path>
                        <path d="M47.5,8.72347826 L47.5,0.94173913" id="Shape" stroke-width="4.98362742" fill="#FFFFFF" fill-rule="nonzero"></path>
                        <path d="M22.2069161,17.4965217 L17.6172441,11.2017391" id="Shape" stroke-width="4.98362742" fill="#FFFFFF" fill-rule="nonzero"></path>
                        <path d="M73.0425226,17.1495652 L77.1333172,11.5982609" id="Shape" stroke-width="4.98362742" fill="#FFFFFF" fill-rule="nonzero"></path>
                        <path d="M7.49003295,36.8765217 L0.156535249,34.2495652" id="Shape" stroke-width="4.98362742" fill="#FFFFFF" fill-rule="nonzero"></path>
                        <path d="M87.509967,36.8765217 L94.8434648,34.2495652" id="Shape" stroke-width="4.98362742" fill="#FFFFFF" fill-rule="nonzero"></path>
                        <path d="M79.9270307,50.5565217 C79.9270307,71.9191304 61.0195774,77.2226087 61.0195774,87.9286957 L33.9804226,87.9286957 C33.9804226,77.2226087 15.0729693,71.9191304 15.0729693,50.5565217 C15.0729693,32.7633478 29.5910455,18.3391304 47.5,18.3391304 C65.4089545,18.3391304 79.9270307,32.7633478 79.9270307,50.5565217 Z" id="Shape" stroke-width="4.98362742" stroke-linejoin="round"></path>
                    </g>
                </g>
            </g>
        </g>
    </g>
</svg>