<?xml version="1.0" encoding="UTF-8"?>
<svg width="140px" height="140px" viewBox="0 0 140 140" version="1.1" xmlns="http://www.w3.org/2000/svg" xmlns:xlink="http://www.w3.org/1999/xlink">
    <!-- Generator: Sketch 50 (54983) - http://www.bohemiancoding.com/sketch -->
    <title>icon-invoice-circlebg</title>
    <desc>Created with Sketch.</desc>
    <defs></defs>
    <g id="Page-1" stroke="none" stroke-width="1" fill="none" fill-rule="evenodd">
        <g id="icon-invoice-circlebg">
            <circle id="Oval-2" fill="#FFFFFF" cx="70" cy="70" r="70"></circle>
            <g id="icon-color-invoice" transform="translate(39.000000, 30.000000)">
                <path d="M62,19.184466 L62,75.2038835 C62.0000249,77.4912526 60.1554656,79.3485347 57.873125,79.3592233 L4.126875,79.3592233 C1.84453439,79.3485347 -2.49189659e-05,77.4912526 0,75.2038835 L0,4.7961165 C-2.49189659e-05,2.50874736 1.84453439,0.65146534 4.126875,0.640776699 L43.380625,0.640776699" id="Shape" stroke="#000000" stroke-width="3.88349515" stroke-linecap="round" stroke-linejoin="round"></path>
                <polyline id="Shape" stroke="#000000" stroke-width="1.94174757" fill="#BDCCD4" fill-rule="nonzero" points="62 19.2815534 43.4 0.640776699 43.380625 0.640776699 43.4 19.2815534 62 19.184466"></polyline>
                <rect id="Rectangle-path" stroke="#000000" stroke-width="1.94174757" fill="#7AC943" fill-rule="nonzero" stroke-linecap="round" stroke-linejoin="round" x="9.3" y="30.6796117" width="43.4" height="24.8543689"></rect>
                <rect id="Rectangle-path" stroke="#000000" stroke-width="1.94174757" fill="#3FA9F5" fill-rule="nonzero" stroke-linecap="round" stroke-linejoin="round" x="9.3" y="43.1067961" width="43.4" height="12.4271845"></rect>
                <path d="M52.7,43.1067961 L9.3,43.1067961" id="Shape" stroke="#000000" stroke-width="1.94174757" stroke-linecap="round" stroke-linejoin="round"></path>
                <path d="M32.026875,31.7087379 L32.026875,54.5048544" id="Shape" stroke="#000000" stroke-width="1.94174757" stroke-linecap="round" stroke-linejoin="round"></path>
                <path d="M42.373125,31.7087379 L42.373125,54.5048544" id="Shape" stroke="#000000" stroke-width="1.94174757" stroke-linecap="round" stroke-linejoin="round"></path>
                <path d="M9.3,22.3883495 L27.9,22.3883495" id="Shape" stroke="#3FA9F5" stroke-width="3.88349515" stroke-linecap="round" stroke-linejoin="round"></path>
                <path d="M32.026875,65.8834951 L52.7,65.8834951" id="Shape" stroke="#7AC943" stroke-width="3.88349515" stroke-linecap="round" stroke-linejoin="round"></path>
                <path d="M43.4,0.640776699 L62,19.2815534" id="Shape" stroke="#000000" stroke-width="3.88349515" stroke-linecap="round" stroke-linejoin="round"></path>
            </g>
        </g>
    </g>
</svg>