<?xml version="1.0" encoding="UTF-8"?>
<svg width="140px" height="140px" viewBox="0 0 140 140" version="1.1" xmlns="http://www.w3.org/2000/svg" xmlns:xlink="http://www.w3.org/1999/xlink">
    <!-- Generator: Sketch 50 (54983) - http://www.bohemiancoding.com/sketch -->
    <title>icon-mobile-circlebg</title>
    <desc>Created with Sketch.</desc>
    <defs></defs>
    <g id="Page-1" stroke="none" stroke-width="1" fill="none" fill-rule="evenodd">
        <g id="icon-mobile-circlebg">
            <circle id="Oval-2" fill="#FFFFFF" cx="70" cy="70" r="70"></circle>
            <g id="icon-color-mobile" transform="translate(30.000000, 29.000000)">
                <path d="M6.19047619,0.476744186 L53.8095238,0.476744186 C56.9654367,0.476744186 59.5238095,3.0380919 59.5238095,6.19767442 L59.5238095,13.8255814 L0.476190476,13.8255814 L0.476190476,6.19767442 C0.476190476,3.0380919 3.03456333,0.476744186 6.19047619,0.476744186 Z" id="Shape" fill="#000000" fill-rule="nonzero"></path>
                <path d="M0.476190476,59.5930233 L43.8095238,59.5930233 L43.8095238,72.9418605 L6.19047619,72.9418605 C3.03456333,72.9418605 0.476190476,70.3805128 0.476190476,67.2209302 L0.476190476,59.5930233 Z" id="Shape" fill="#000000" fill-rule="nonzero"></path>
                <g id="Group" transform="translate(49.523810, 32.418605)">
                    <rect id="Rectangle-path" stroke="#000000" stroke-width="3.80952381" stroke-linecap="round" stroke-linejoin="round" x="0.952380952" y="0.476744186" width="28.5714286" height="47.6744186" rx="5.71428571"></rect>
                    <rect id="Rectangle-path" fill="#000000" fill-rule="nonzero" x="11.4285714" y="6.19767442" width="7.61904762" height="3.81395349" rx="1.9047619"></rect>
                    <ellipse id="Oval" fill="#000000" fill-rule="nonzero" cx="15.2380952" cy="38.6162791" rx="3.80952381" ry="3.81395349"></ellipse>
                </g>
                <g id="Group">
                    <path d="M59.5238095,23.7037209 L59.5238095,6.19767442 C59.5238095,3.0380919 56.9654367,0.476744186 53.8095238,0.476744186 L6.19047619,0.476744186 C3.03456333,0.476744186 0.476190476,3.0380919 0.476190476,6.19767442 L0.476190476,67.2209302 C0.476190476,70.3805128 3.03456333,72.9418605 6.19047619,72.9418605 L41.6952381,72.9418605" id="Shape" stroke="#000000" stroke-width="3.80952381" stroke-linecap="round" stroke-linejoin="round"></path>
                    <rect id="Rectangle-path" fill="#FFFFFF" fill-rule="nonzero" x="22.3809524" y="4.44325581" width="15.2380952" height="3.81395349" rx="1.9047619"></rect>
                    <ellipse id="Oval" fill="#FFFFFF" fill-rule="nonzero" cx="30" cy="66.0767442" rx="3.80952381" ry="3.81395349"></ellipse>
                </g>
                <g id="Group" transform="translate(55.238095, 45.767442)" fill-rule="nonzero">
                    <rect id="Rectangle-path" fill="#7AC943" x="0" y="0" width="19.047619" height="19.0697674" rx="5.71428571"></rect>
                    <path d="M7.42857143,11.2511628 C8.03512474,11.7852388 8.79554462,12.112466 9.6,12.1855814 C10.0571429,12.1855814 10.552381,12.0139535 10.552381,11.4609302 C10.552381,10.4502326 6.41904762,10.3548837 6.41904762,7.64697674 C6.43817593,6.25982505 7.481011,5.10158466 8.85714286,4.93906977 L8.85714286,3.81395349 L10.247619,3.81395349 L10.247619,4.9772093 C11.1095459,5.04504624 11.9256483,5.39329765 12.5714286,5.96883721 L11.6380952,7.87581395 C11.0654229,7.40380959 10.3592167,7.1236667 9.61904762,7.07488372 C9.16190476,7.07488372 8.64761905,7.28465116 8.64761905,7.79953488 C8.64761905,8.86744186 12.7809524,8.79116279 12.7809524,11.6134884 C12.7768176,13.0520068 11.678766,14.2505228 10.247619,14.3786047 L10.247619,15.5418605 L8.85714286,15.5418605 L8.85714286,14.3786047 C7.8846219,14.2495023 6.97784687,13.8156132 6.26666667,13.1390698 L7.42857143,11.2511628 Z" id="Shape" fill="#FFFFFF"></path>
                </g>
                <g id="Group" transform="translate(17.142857, 22.883721)" fill-rule="nonzero">
                    <rect id="Rectangle-path" fill="#3FA9F5" x="0" y="0" width="26.6666667" height="26.6976744" rx="5.71428571"></rect>
                    <path d="M10.4,15.7516279 C11.248783,16.5058685 12.317153,16.9671388 13.447619,17.0674419 C14.0952381,17.0674419 14.7809524,16.8195349 14.7809524,16.0567442 C14.7809524,14.6265116 9.06666667,14.512093 9.06666667,10.6790698 C9.05585101,8.71965176 10.529834,7.07082839 12.4761905,6.86511628 L12.4761905,5.20604651 L14.3809524,5.20604651 L14.3809524,6.80790698 C15.5865228,6.91489291 16.7270305,7.40234245 17.6380952,8.2 L16.3238095,10.7553488 C15.5262243,10.0919419 14.5394751,9.69811827 13.5047619,9.63023256 C12.8571429,9.63023256 12.152381,9.91627907 12.152381,10.6218605 C12.152381,12.1283721 17.8666667,12.0330233 17.8666667,15.9613953 C17.8709189,17.9746493 16.3114298,19.6444915 14.3047619,19.7753488 L14.3047619,21.3962791 L12.4,21.3962791 L12.4,19.7753488 C11.0311208,19.6082239 9.75393468,18.9990141 8.76190476,18.04 L10.4,15.7516279 Z" id="Shape" fill="#FFFFFF"></path>
                </g>
            </g>
        </g>
    </g>
</svg>