<?xml version="1.0" encoding="UTF-8"?>
<svg width="161px" height="267px" viewBox="0 0 161 267" version="1.1" xmlns="http://www.w3.org/2000/svg" xmlns:xlink="http://www.w3.org/1999/xlink">
    <!-- Generator: Sketch 52.5 (67469) - http://www.bohemiancoding.com/sketch -->
    <title>Group</title>
    <desc>Created with Sketch.</desc>
    <defs>
        <polygon id="path-1" points="98.219632 70.6218 160.787 70.6218 160.787 195.3778 98.219632 195.3778"></polygon>
    </defs>
    <g id="Page-1" stroke="none" stroke-width="1" fill="none" fill-rule="evenodd">
        <g id="Group">
            <path d="M22.9331,195.188 C22.5071,196.102 22.0811,196.969 21.6571,197.818 C21.3961,196.661 21.1371,195.479 20.8821,194.243 C19.4371,187.223 19.4121,180.946 19.8561,176.057 C21.3281,176.563 22.5431,177.567 24.1911,177.717 C24.6191,177.756 25.0481,177.743 25.4781,177.711 C26.0831,181.514 26.2871,187.993 22.9331,195.188 M31.4361,142.174 C15.1661,142.174 10.4991,156.125 1.9781,165.153 C-2.4989,169.895 1.1171,172.568 7.8921,174.051 C7.8921,174.051 6.4331,175.33 9.2161,175.788 C11.8901,176.229 14.9221,176.067 17.4661,175.817 C17.5661,178.727 17.1441,183.292 14.4231,188.157 C9.8501,196.33 5.5581,200.372 6.5211,208.33 C7.4831,216.289 8.6791,220.645 6.6411,224.383 C6.6411,224.383 8.8081,221.911 9.0191,217.602 C9.1441,215.042 6.2491,207.178 8.0671,201.417 C9.6071,196.542 15.7751,191.833 18.2111,180.955 C18.2951,188.579 19.2561,194.848 20.4391,200.196 C16.0791,208.538 12.4791,214.108 14.5411,222.947 C18.5811,240.264 16.8141,244.609 14.4581,249.815 C14.4581,249.815 17.6331,248.391 18.4001,243.682 C19.6991,235.696 14.0121,221.44 15.7991,213.559 C16.5251,210.355 18.7461,207.09 21.0751,202.924 C22.8171,210.01 24.7571,215.438 25.0521,220.418 C25.7041,231.418 19.3031,246.426 18.1021,250.909 C16.1771,258.086 19.6021,260.114 19.6021,260.114 C18.1221,252.635 21.6771,247.17 25.0521,233.364 C27.9621,221.465 25.2671,213.188 22.3061,200.639 C25.1981,195.038 27.8781,187.815 27.7111,177.377 C28.5911,177.2 29.4701,177.006 30.3391,176.917 C32.1861,181.28 34.7731,190.024 32.1891,200.963 C28.4461,216.799 23.0641,225.649 28.8331,238.35 C34.6031,251.051 36.7211,259.713 35.1031,266.93 C35.1031,266.93 39.6661,262.801 35.5311,250.955 C34.0661,246.76 27.7671,236.579 27.9641,226.12 C28.1541,216.092 39.3481,201.836 33.2651,177.129 C33.7911,177.26 34.3191,177.413 34.9161,177.539 C36.6001,182.045 38.7511,190.42 37.0081,200.965 C34.3531,217.018 29.5851,226.215 36.2041,238.493 C42.8251,250.772 48.6031,255.192 47.4791,262.502 C47.4791,262.502 49.9811,261.51 47.6561,254.661 C46.2271,250.454 35.0211,236.799 34.5051,226.35 C34.0171,216.434 43.5821,201.565 37.4921,177.776 C37.7181,177.772 37.9541,177.762 38.2041,177.747 C38.5191,177.725 38.7981,177.69 39.0791,177.657 C40.5951,188.424 46.9541,195.942 48.0441,203.84 C49.4741,214.201 41.1541,229.905 40.5041,234.301 C39.8541,238.696 41.9951,241.77 41.9951,241.77 C39.5371,234.793 44.3951,229.381 48.6241,216.088 C52.8541,202.793 46.2671,196.631 41.5211,181.068 C41.1241,179.77 40.9631,178.516 40.9531,177.326 C41.7751,177.126 42.4661,176.883 43.1131,176.637 C47.3891,185.704 53.5951,190.508 55.8141,196.208 C58.6421,203.473 54.5911,215.645 54.6331,218.958 C54.7001,224.045 57.9831,224.754 57.9831,224.754 C54.9941,220.122 57.5811,215.355 58.3501,204.987 C59.1211,194.618 53.0781,189.809 46.3861,179.692 C45.6001,178.504 44.9411,177.325 44.3791,176.163 C44.6301,176.075 44.8871,175.991 45.1581,175.914 C47.2401,175.322 50.2911,176.68 53.5011,175.914 C55.1351,175.526 56.5441,174.502 57.5371,173.592 C62.2381,172.067 64.2661,169.493 60.8921,165.153 C48.7861,149.571 47.7041,142.174 31.4361,142.174" id="Fill-1" fill-opacity="0.2" fill="#D7FDFF"></path>
            <path d="M72.9165,53.0137 C72.4905,53.9287 72.0625,54.7957 71.6405,55.6447 C71.3795,54.4867 71.1205,53.3057 70.8645,52.0687 C69.4195,45.0497 69.3955,38.7717 69.8395,33.8837 C71.3105,34.3887 72.5265,35.3927 74.1745,35.5427 C74.6005,35.5827 75.0305,35.5687 75.4605,35.5377 C76.0655,39.3407 76.2705,45.8187 72.9165,53.0137 M84.4875,84.1767 C83.9995,74.2597 93.5655,59.3907 87.4745,35.6017 C87.6995,35.5977 87.9375,35.5887 88.1875,35.5727 C88.5025,35.5517 88.7805,35.5157 89.0625,35.4827 C90.5775,46.2507 96.9375,53.7677 98.0265,61.6667 C99.4575,72.0277 91.1365,87.7307 90.4875,92.1277 C89.8375,96.5217 91.9785,99.5967 91.9785,99.5967 C89.5195,92.6197 94.3785,87.2077 98.6075,73.9137 C102.8375,60.6197 96.2495,54.4577 91.5035,38.8947 C91.1075,37.5967 90.9455,36.3427 90.9355,35.1527 C91.7575,34.9517 92.4485,34.7097 93.0955,34.4637 C97.3725,43.5297 103.5775,48.3347 105.7955,54.0337 C108.6245,61.2997 104.5735,73.4717 104.6165,76.7837 C104.6835,81.8717 107.9665,82.5797 107.9665,82.5797 C104.9775,77.9477 107.5645,73.1817 108.3335,62.8127 C109.1035,52.4437 103.0605,47.6347 96.3695,37.5177 C95.5835,36.3297 94.9235,35.1507 94.3625,33.9887 C94.6125,33.9007 94.8705,33.8167 95.1405,33.7407 C97.2235,33.1487 100.2745,34.5067 103.4825,33.7407 C105.1185,33.3517 106.5275,32.3287 107.5205,31.4177 C112.2205,29.8927 114.2495,27.3187 110.8755,22.9787 C98.7695,7.3967 97.6875,0.0007 81.4195,0.0007 C65.1495,0.0007 60.4825,13.9507 51.9615,22.9787 C47.4825,27.7217 51.1005,30.3947 57.8745,31.8777 C57.8745,31.8777 56.4165,33.1567 59.1985,33.6137 C61.8735,34.0557 64.9055,33.8927 67.4495,33.6427 C67.5495,36.5537 67.1255,41.1177 64.4055,45.9827 C59.8335,54.1567 55.5415,58.1977 56.5035,66.1567 C57.4665,74.1157 58.6615,78.4717 56.6245,82.2097 C56.6245,82.2097 58.7905,79.7367 59.0015,75.4287 C59.1265,72.8677 56.2315,65.0047 58.0505,59.2427 C59.5895,54.3677 65.7585,49.6587 68.1935,38.7817 C68.2785,46.4047 69.2395,52.6747 70.4225,58.0217 C66.0625,66.3637 62.4625,71.9337 64.5245,80.7737 C68.5645,98.0907 66.7975,102.4357 64.4415,107.6407 C64.4415,107.6407 67.6165,106.2177 68.3825,101.5087 C69.6815,93.5217 63.9955,79.2657 65.7825,71.3847 C66.5085,68.1817 68.7285,64.9167 71.0585,60.7507 C72.8005,67.8367 74.7395,73.2637 75.0355,78.2447 C75.6875,89.2447 69.2865,104.2527 68.0855,108.7347 C66.1585,115.9127 69.5855,117.9397 69.5855,117.9397 C68.1045,110.4617 71.6585,104.9967 75.0355,91.1897 C77.9445,79.2917 75.2495,71.0137 72.2875,58.4657 C75.1815,52.8637 77.8615,45.6407 77.6945,35.2037 C78.5745,35.0257 79.4525,34.8327 80.3205,34.7427 C82.1695,39.1057 84.7555,47.8497 82.1705,58.7887 C78.4295,74.6257 73.0475,83.4747 78.8155,96.1767 C84.5855,108.8777 86.7045,117.5387 85.0855,124.7567 C85.0855,124.7567 89.6495,120.6277 85.5125,108.7817 C84.0485,104.5867 77.7495,94.4047 77.9475,83.9457 C78.1365,73.9177 89.3315,59.6627 83.2485,34.9547 C83.7745,35.0867 84.3025,35.2387 84.8995,35.3657 C86.5835,39.8717 88.7345,48.2467 86.9915,58.7917 C84.3355,74.8447 79.5665,84.0417 86.1875,96.3187 C92.8085,108.5977 98.5865,113.0177 97.4625,120.3287 C97.4625,120.3287 99.9645,119.3367 97.6375,112.4867 C96.2105,108.2797 85.0035,94.6257 84.4875,84.1767" id="Fill-3" fill-opacity="0.2" fill="#D7FDFF"></path>
            <mask id="mask-2" fill="white">
                <use xlink:href="#path-1"></use>
            </mask>
            <g id="Clip-6"></g>
            <path d="M121.1538,123.6348 C120.7268,124.5498 120.2998,125.4168 119.8758,126.2658 C119.6158,125.1078 119.3568,123.9268 119.0998,122.6898 C117.6558,115.6708 117.6328,109.3928 118.0748,104.5048 C119.5458,105.0098 120.7618,106.0138 122.4108,106.1638 C122.8378,106.2038 123.2668,106.1898 123.6958,106.1588 C124.3018,109.9618 124.5068,116.4398 121.1538,123.6348 M151.7198,104.3618 C153.3538,103.9728 154.7638,102.9498 155.7578,102.0388 C160.4568,100.5138 162.4858,97.9398 159.1128,93.5998 C147.0058,78.0178 145.9248,70.6218 129.6558,70.6218 C113.3858,70.6218 108.7188,84.5718 100.1978,93.5998 C95.7198,98.3428 99.3378,101.0158 106.1108,102.4988 C106.1108,102.4988 104.6538,103.7778 107.4348,104.2348 C110.1098,104.6768 113.1418,104.5138 115.6858,104.2638 C115.7858,107.1748 115.3628,111.7388 112.6418,116.6038 C108.0698,124.7778 103.7788,128.8188 104.7398,136.7778 C105.7028,144.7368 106.8978,149.0928 104.8608,152.8298 C104.8608,152.8298 107.0268,150.3578 107.2378,146.0498 C107.3628,143.4888 104.4678,135.6258 106.2868,129.8638 C107.8248,124.9888 113.9948,120.2798 116.4288,109.4028 C116.5148,117.0258 117.4748,123.2958 118.6588,128.6428 C114.2998,136.9848 110.6988,142.5548 112.7608,151.3948 C116.7998,168.7118 115.0338,173.0568 112.6788,178.2618 C112.6788,178.2618 115.8528,176.8388 116.6188,172.1298 C117.9168,164.1428 112.2318,149.8868 114.0188,142.0068 C114.7448,138.8028 116.9648,135.5378 119.2958,131.3718 C121.0368,138.4578 122.9748,143.8848 123.2708,148.8658 C123.9248,159.8658 117.5228,174.8738 116.3208,179.3558 C114.3958,186.5338 117.8208,188.5608 117.8208,188.5608 C116.3418,181.0828 119.8958,175.6178 123.2708,161.8108 C126.1808,149.9128 123.4858,141.6348 120.5248,129.0868 C123.4168,123.4848 126.0978,116.2618 125.9308,105.8248 C126.8108,105.6468 127.6878,105.4538 128.5578,105.3638 C130.4058,109.7268 132.9918,118.4708 130.4078,129.4108 C126.6658,145.2468 121.2838,154.0958 127.0518,166.7968 C132.8208,179.4988 134.9408,188.1608 133.3208,195.3778 C133.3208,195.3778 137.8858,191.2488 133.7498,179.4028 C132.2838,175.2078 125.9858,165.0258 126.1828,154.5668 C126.3728,144.5388 137.5668,130.2838 131.4838,105.5758 C132.0118,105.7078 132.5378,105.8598 133.1358,105.9868 C134.8198,110.4928 136.9708,118.8678 135.2278,129.4128 C132.5708,145.4658 127.8038,154.6628 134.4248,166.9398 C141.0448,179.2188 146.8228,183.6388 145.6988,190.9498 C145.6988,190.9498 148.1998,189.9578 145.8748,183.1078 C144.4458,178.9008 133.2398,165.2468 132.7248,154.7968 C132.2358,144.8818 141.8018,130.0118 135.7108,106.2228 C135.9368,106.2188 136.1738,106.2098 136.4238,106.1938 C136.7378,106.1718 137.0168,106.1368 137.2998,106.1038 C138.8128,116.8718 145.1738,124.3888 146.2618,132.2878 C147.6938,142.6488 139.3728,158.3518 138.7238,162.7488 C138.0738,167.1428 140.2148,170.2178 140.2148,170.2178 C137.7558,163.2408 142.6148,157.8288 146.8438,144.5358 C151.0738,131.2408 144.4858,125.0788 139.7398,109.5158 C139.3438,108.2178 139.1828,106.9638 139.1708,105.7738 C139.9938,105.5728 140.6848,105.3298 141.3318,105.0848 C145.6078,114.1508 151.8128,118.9548 154.0328,124.6548 C156.8608,131.9208 152.8098,144.0928 152.8528,147.4048 C152.9208,152.4928 156.2028,153.2008 156.2028,153.2008 C153.2138,148.5688 155.7998,143.8028 156.5698,133.4338 C157.3398,123.0648 151.2958,118.2568 144.6058,108.1388 C143.8208,106.9508 143.1588,105.7718 142.5988,104.6098 C142.8498,104.5218 143.1068,104.4378 143.3758,104.3618 C145.4588,103.7698 148.5108,105.1278 151.7198,104.3618" id="Fill-5" fill-opacity="0.2" fill="#D7FDFF" mask="url(#mask-2)"></path>
        </g>
    </g>
</svg>