<svg id="Layer_1" data-name="Layer 1" xmlns="http://www.w3.org/2000/svg" xmlns:xlink="http://www.w3.org/1999/xlink" viewBox="0 0 52 60"><defs><style>.cls-1{fill:#d31c5b;}.cls-2{isolation:isolate;}.cls-3{clip-path:url(#clip-path);}.cls-4{clip-path:url(#clip-path-2);}.cls-5{clip-path:url(#clip-path-3);}.cls-6{fill:#ed1f79;}.cls-7{clip-path:url(#clip-path-4);}.cls-8{fill:#fff;}.cls-9{clip-path:url(#clip-path-5);}.cls-10{clip-path:url(#clip-path-6);}</style><clipPath id="clip-path"><path class="cls-1" d="M37.77,47.36l-8.51-4.62A2.54,2.54,0,0,0,30.8,43a6.66,6.66,0,0,0,3.29-1.64l8.51,4.63a6.66,6.66,0,0,1-3.29,1.64A2.46,2.46,0,0,1,37.77,47.36Z"/></clipPath><clipPath id="clip-path-2"><path class="cls-1" d="M33.88,20.78l8.5,4.63.26.14-8.51-4.62Z"/></clipPath><clipPath id="clip-path-3"><path class="cls-1" d="M34.21,51.77l-8.5-4.63A4.67,4.67,0,0,1,24,45.5c-1.17-1.79-1.74-4.94-1.73-9.46l8.5,4.63c0,4.51.57,7.67,1.73,9.45A4.77,4.77,0,0,0,34.21,51.77Z"/></clipPath><clipPath id="clip-path-4"><path class="cls-1" d="M32.59,16.35,41.09,21a5,5,0,0,0-3.23-.61A6.62,6.62,0,0,0,32.3,24.7a27,27,0,0,0-1.54,9.94L22.26,30a26.82,26.82,0,0,1,1.54-9.94,6.61,6.61,0,0,1,5.56-4.33A5.11,5.11,0,0,1,32.59,16.35Z"/></clipPath><clipPath id="clip-path-5"><path class="cls-1" d="M21.75,52.82,13.24,48.2a2.87,2.87,0,0,0,1.73.16,12.66,12.66,0,0,0,1.94-.43l8.51,4.62a12.81,12.81,0,0,1-2,.44A2.83,2.83,0,0,1,21.75,52.82Z"/></clipPath><clipPath id="clip-path-6"><path class="cls-1" d="M18,57.17,9.5,52.54C7.83,51.63,7,49.61,7,46.47l8.5,4.63Q15.5,55.81,18,57.17Z"/></clipPath></defs><title>v</title><g class="cls-2"><polygon class="cls-1" points="42.59 51.2 34.08 46.58 34.09 44.58 42.59 49.21 42.59 51.2"/><g class="cls-2"><path class="cls-1" d="M37.77,47.36l-8.51-4.62A2.54,2.54,0,0,0,30.8,43a6.66,6.66,0,0,0,3.29-1.64l8.51,4.63a6.66,6.66,0,0,1-3.29,1.64A2.46,2.46,0,0,1,37.77,47.36Z"/><g class="cls-3"><g class="cls-2"><path class="cls-1" d="M37.77,47.36l-8.51-4.62.07,0,8.5,4.63-.06,0"/><path class="cls-1" d="M37.83,47.4l-8.5-4.63a1.57,1.57,0,0,0,.38.14l8.5,4.63a2.46,2.46,0,0,1-.38-.14"/><path class="cls-1" d="M38.21,47.54l-8.5-4.63a2.79,2.79,0,0,0,1.09,0,5.26,5.26,0,0,0,1.5-.46l8.51,4.62a5.29,5.29,0,0,1-1.5.47,3,3,0,0,1-1.1,0"/><path class="cls-1" d="M40.81,47.11,32.3,42.49a7.86,7.86,0,0,0,1.06-.62l8.5,4.63a7.11,7.11,0,0,1-1,.61"/><path class="cls-1" d="M41.86,46.5l-8.5-4.63a8.89,8.89,0,0,0,.73-.56l8.51,4.63c-.25.2-.49.39-.74.56"/></g></g></g><polygon class="cls-1" points="42.6 45.94 34.09 41.31 34.13 20.93 42.64 25.55 42.6 45.94"/><g class="cls-2"><path class="cls-1" d="M33.88,20.78l8.5,4.63.26.14-8.51-4.62Z"/><g class="cls-4"><g class="cls-2"><path class="cls-1" d="M42.64,25.55l-8.51-4.62-.25-.15,8.5,4.63.26.14"/></g></g></g><g class="cls-2"><path class="cls-1" d="M34.21,51.77l-8.5-4.63A4.67,4.67,0,0,1,24,45.5c-1.17-1.79-1.74-4.94-1.73-9.46l8.5,4.63c0,4.51.57,7.67,1.73,9.45A4.77,4.77,0,0,0,34.21,51.77Z"/><g class="cls-5"><g class="cls-2"><path class="cls-1" d="M34.21,51.77l-8.5-4.63A4.67,4.67,0,0,1,24,45.5c-1.17-1.79-1.74-4.94-1.73-9.46l8.5,4.63c0,4.51.57,7.67,1.73,9.45a4.77,4.77,0,0,0,1.73,1.65"/></g></g></g><polygon class="cls-1" points="30.75 40.67 22.25 36.04 22.26 30.01 30.76 34.64 30.75 40.67"/><polygon class="cls-6" points="42.67 7.65 34.16 3.02 39.49 2.27 48 6.9 42.67 7.65"/><polygon class="cls-1" points="42.64 22.12 34.14 17.49 34.16 3.02 42.67 7.65 42.64 22.12"/><g class="cls-2"><path class="cls-1" d="M32.59,16.35,41.09,21a5,5,0,0,0-3.23-.61A6.62,6.62,0,0,0,32.3,24.7a27,27,0,0,0-1.54,9.94L22.26,30a26.82,26.82,0,0,1,1.54-9.94,6.61,6.61,0,0,1,5.56-4.33A5.11,5.11,0,0,1,32.59,16.35Z"/><g class="cls-7"><g class="cls-2"><path class="cls-1" d="M30.76,34.64,22.26,30a28.06,28.06,0,0,1,1.35-9.46l8.51,4.63a28,28,0,0,0-1.36,9.46"/><path class="cls-1" d="M32.12,25.18l-8.51-4.63.19-.48a7.38,7.38,0,0,1,.4-.85l8.5,4.63c-.14.27-.27.55-.4.85l-.18.48"/><path class="cls-1" d="M32.7,23.85l-8.5-4.63a7.66,7.66,0,0,1,.45-.74l8.51,4.63a6.13,6.13,0,0,0-.46.74"/><path class="cls-6" d="M33.16,23.11l-8.51-4.63a6.9,6.9,0,0,1,.46-.58l8.51,4.62a6.65,6.65,0,0,0-.46.59"/><path class="cls-6" d="M33.62,22.52,25.11,17.9c.16-.18.33-.35.5-.51L34.12,22a6,6,0,0,0-.5.51"/><path class="cls-6" d="M34.12,22l-8.51-4.62a6.89,6.89,0,0,1,.61-.49l8.51,4.63a7.16,7.16,0,0,0-.61.48"/><path class="cls-6" d="M34.73,21.53,26.22,16.9a7.33,7.33,0,0,1,.91-.51L35.63,21a6.6,6.6,0,0,0-.9.52"/><path class="cls-6" d="M35.63,21l-8.5-4.62a7.63,7.63,0,0,1,2.23-.65,5.06,5.06,0,0,1,2,.11l8.51,4.63a4.93,4.93,0,0,0-2-.11,8,8,0,0,0-2.23.64"/><path class="cls-1" d="M39.85,20.48l-8.51-4.63a5.17,5.17,0,0,1,1,.39l8.51,4.62a5.82,5.82,0,0,0-1-.38"/><path class="cls-1" d="M40.88,20.86l-8.51-4.62.22.11L41.09,21l-.21-.12"/></g></g></g><path class="cls-8" d="M42.67,7.65,48,6.9l-.08,43.55-5.33.75v-2A7.19,7.19,0,0,1,38,52.28c-2.48.35-4.31-.37-5.47-2.16s-1.74-4.94-1.73-9.45v-6A27,27,0,0,1,32.3,24.7a6.62,6.62,0,0,1,5.56-4.33,5.62,5.62,0,0,1,4.78,1.75ZM42.6,45.94l0-20.39a5.32,5.32,0,0,0-3.39-.86c-2.09.29-3.14,2.61-3.15,6.94V40.4a17.83,17.83,0,0,0,.63,5.6,2.16,2.16,0,0,0,2.59,1.58,6.66,6.66,0,0,0,3.29-1.64"/></g><g class="cls-2"><g class="cls-2"><path class="cls-1" d="M21.75,52.82,13.24,48.2a2.87,2.87,0,0,0,1.73.16,12.66,12.66,0,0,0,1.94-.43l8.51,4.62a12.81,12.81,0,0,1-2,.44A2.83,2.83,0,0,1,21.75,52.82Z"/><g class="cls-9"><g class="cls-2"><path class="cls-1" d="M21.75,52.82,13.24,48.2l0,0,8.51,4.63-.05,0"/><path class="cls-1" d="M21.8,52.85l-8.51-4.63a1.43,1.43,0,0,0,.31.12L22.11,53a1.25,1.25,0,0,1-.31-.11"/><path class="cls-1" d="M22.11,53,13.6,48.34a3.62,3.62,0,0,0,1.37,0,12.66,12.66,0,0,0,1.94-.43l8.51,4.62a12.81,12.81,0,0,1-2,.44,3.54,3.54,0,0,1-1.36,0"/></g></g></g><g class="cls-2"><path class="cls-1" d="M18,57.17,9.5,52.54C7.83,51.63,7,49.61,7,46.47l8.5,4.63Q15.5,55.81,18,57.17Z"/><g class="cls-10"><g class="cls-2"><path class="cls-1" d="M18,57.17,9.5,52.54C7.83,51.63,7,49.61,7,46.47l8.5,4.63q0,4.71,2.5,6.07"/></g></g></g><polygon class="cls-6" points="20.89 26.26 12.38 21.63 17.01 20.98 25.52 25.61 20.89 26.26"/><polygon class="cls-1" points="15.51 51.1 7 46.47 7.04 26.2 15.54 30.82 15.51 51.1"/><polygon class="cls-6" points="12.52 27.43 4.01 22.81 7.04 22.38 15.55 27.01 12.52 27.43"/><polygon class="cls-1" points="12.51 31.25 4 26.62 4.01 22.81 12.52 27.43 12.51 31.25"/><polygon class="cls-6" points="15.57 17.92 7.06 13.29 12.4 12.54 20.9 17.17 15.57 17.92"/><polygon class="cls-1" points="15.55 27.01 7.04 22.38 7.06 13.29 15.57 17.92 15.55 27.01"/><path class="cls-8" d="M20.9,17.17v9.09l4.63-.65v3.81l-4.63.65,0,19.9a4.3,4.3,0,0,0,.54,2.55c.37.46,1.06.61,2.09.47a12.81,12.81,0,0,0,2-.44V56.8a25.15,25.15,0,0,1-3.69.84q-6.22.87-6.22-6.54l0-20.28-3,.43V27.43l3-.42,0-9.09Z"/></g></svg>