<?xml version="1.0" encoding="UTF-8"?>
<svg width="237px" height="92px" viewBox="0 0 237 92" version="1.1" xmlns="http://www.w3.org/2000/svg" xmlns:xlink="http://www.w3.org/1999/xlink">
    <!-- Generator: Sketch 52.5 (67469) - http://www.bohemiancoding.com/sketch -->
    <title>Group 15</title>
    <desc>Created with Sketch.</desc>
    <defs>
        <polygon id="path-1" points="0.0276116505 0.199718593 91.3798369 0.199718593 91.3798369 91.9722613 0.0276116505 91.9722613"></polygon>
    </defs>
    <g id="Page-1" stroke="none" stroke-width="1" fill="none" fill-rule="evenodd">
        <g id="Krabby-Desktop" transform="translate(-891.000000, -4153.000000)">
            <g id="Group-16" transform="translate(-383.000000, 4153.000000)">
                <g id="Group-15" transform="translate(1274.000000, 0.000000)">
                    <path d="M39.1165049,49.6689045 C39.1165049,51.668402 39.875365,52.5218291 41.6540155,52.5218291 L50.8528369,52.5218291 L50.8528369,46.6934673 L41.5974117,46.6934673 C40.3691534,46.7175075 39.1165049,47.0924422 39.1165049,49.6689045" id="Fill-1" fill="#FFFFFE"></path>
                    <g id="Group-5">
                        <mask id="mask-2" fill="white">
                            <use xlink:href="#path-1"></use>
                        </mask>
                        <g id="Clip-3"></g>
                        <path d="M22.8629068,35.2831558 L14.8500058,35.2831558 L14.8500058,52.5167437 L22.4275631,52.573608 C25.0014291,52.5370854 26.1565165,51.4820905 26.1565165,49.1543518 L26.1565165,38.951598 C26.1565165,36.4144322 25.1404078,35.2831558 22.8629068,35.2831558" id="Fill-2" fill="#FFFFFE" mask="url(#mask-2)"></path>
                        <path d="M74.6582214,68.0656683 L66.0484485,68.1345528 L66.0484485,62.3778492 L75.1658155,62.177206 C77.3135417,61.9284824 77.5671087,60.8804221 77.5220097,59.8878392 L77.5215495,58.2605025 L70.1630447,58.2605025 C70.1630447,58.2605025 70.1612039,58.2605025 70.1598233,58.2605025 C66.9297204,58.2605025 64.5344097,57.2841005 62.9361553,55.3571859 C61.3742563,53.4737286 60.5827223,50.6601005 60.5827223,46.9958191 L60.5827223,29.5699095 L66.1289825,29.5699095 L66.1289825,47.5626131 C66.1786835,52.0373266 68.239433,52.5560402 69.7861456,52.5560402 L77.5215495,52.5560402 L77.5215495,29.5343116 L82.9849748,29.5343116 L82.9849748,58.0173266 C82.9849748,66.3213668 78.4566641,68.0647437 74.6582214,68.0656683 Z M41.5472505,58.2605025 C38.9784466,58.2605025 36.9853456,57.5554774 35.6231709,56.1662312 C34.1477883,54.661407 33.4239029,52.3558593 33.4699223,49.3143116 C33.4699223,43.8941709 36.3958369,41.0218291 41.9310524,41.0218291 L50.4768583,41.0218291 L50.4354408,39.3958794 C50.4717961,37.9160201 50.1703689,36.856402 49.5389825,36.2054673 C48.9448718,35.5933668 47.9954913,35.2831558 46.7170718,35.2831558 L35.0138738,35.2831558 L35.0138738,29.5722211 L46.6600078,29.6392563 C52.9283126,29.8209447 56.1377068,33.3058492 55.9600718,39.7194975 L55.960532,58.2605025 L41.5472505,58.2605025 Z M31.7055379,48.9171859 C31.7055379,54.9914975 28.5274369,58.2022513 22.5140796,58.2022513 L14.8500058,58.2022513 L14.8500058,68.1946533 L9.38842136,68.1946533 L9.38842136,29.5773065 L23.0193728,29.5773065 C28.7041515,29.624 31.7055379,32.8777487 31.7055379,38.987196 L31.7055379,48.9171859 Z M45.6899184,0.199718593 C20.4556311,0.199718593 0,20.7508543 0,46.0984724 C0,71.4511759 20.4556311,92 45.6899184,92 C70.9214447,92 91.3798369,71.4511759 91.3798369,46.0984724 C91.3798369,20.7508543 70.9214447,0.199718593 45.6899184,0.199718593 Z" id="Fill-4" fill="#FFFFFE" mask="url(#mask-2)"></path>
                    </g>
                    <path d="M108.80785,41.5188141 L102.879169,41.5188141 C100.637103,41.5188141 99.6375612,40.5969648 99.6375612,38.5285829 C99.6375612,36.5651457 100.41713,35.7274372 102.243641,35.7274372 L116.205472,35.7274372 L116.205472,30.0502513 L102.726384,30.0502513 C97.3292272,30.1857085 94.4295437,33.1449648 94.3398058,38.6215075 C94.3398058,44.2307337 97.2542155,47.1955377 102.767802,47.1955377 L108.95005,47.1955377 C111.904497,47.1955377 112.336159,48.6541307 112.381258,49.8690854 C112.334779,51.2550955 111.882408,52.8454472 108.767353,52.8454472 L95.2477689,52.8454472 L95.2477689,58.5212462 L108.892986,58.5212462 C114.595713,58.5212462 117.634375,55.4972663 117.680394,49.7909548 C117.745282,47.2283618 117.092266,45.2219296 115.740676,43.8289849 C114.253328,42.2959598 111.920604,41.5188141 108.80785,41.5188141" id="Fill-6" fill="#FFFFFE"></path>
                    <path d="M125.448932,32.6803417 C123.746214,34.4019899 122.894854,36.9622714 122.917404,40.2802814 L122.871845,48.4738291 C122.871845,55.0469749 126.458598,58.5212462 133.244621,58.5212462 L141.475654,58.5212462 L141.475654,52.8454472 L132.732425,52.8459095 C131.190775,52.8459095 130.060078,52.4913166 129.372087,51.7913769 C128.733798,51.1422915 128.419025,50.1321407 128.435132,48.7775678 L128.435132,40.1059899 C128.435132,37.0778492 129.705268,35.7274372 132.552029,35.7274372 L141.475654,35.7274372 L141.475654,30.0502513 L133.180654,30.0502513 C129.775217,30.0502513 127.17374,30.9351156 125.448932,32.6803417" id="Fill-7" fill="#FFFFFE"></path>
                    <path d="M161.069619,47.1058492 L161.069619,52.849608 L151.8777,52.849608 C150.101351,52.849608 149.342491,52.0100503 149.342491,50.0419899 C149.342491,47.4988141 150.594219,47.1289648 151.821096,47.1058492 L161.069619,47.1058492 Z M157.21043,30.1149749 L145.510454,30.0502513 L145.510454,35.731598 L157.267955,35.731598 C158.56156,35.731598 159.520605,36.043196 160.117937,36.658995 C160.745182,37.3057688 161.044768,38.3533668 161.007953,39.8161206 L161.04891,41.4300503 L152.506326,41.4300503 C146.969729,41.4300503 144.042894,44.2778894 144.042894,49.6531859 C143.996415,52.6540503 144.715238,54.9327839 146.178195,56.4260503 C147.543592,57.818995 149.548658,58.525407 152.13863,58.525407 L166.589188,58.525407 L166.589188,40.1258693 C166.765902,33.756603 163.529817,30.2948141 157.21043,30.1149749 Z" id="Fill-8" fill="#FFFFFE"></path>
                    <path d="M178.551658,35.7274372 L186.611499,35.7274372 C188.905107,35.7274372 189.926738,36.849005 189.926738,39.3653668 L189.926738,49.4923015 C189.926738,51.7983116 188.765208,52.8431357 186.174315,52.8787337 L178.551658,52.8241809 L178.551658,35.7274372 Z M186.751858,30.0502513 L173.03301,30.0502513 L173.03301,68.427196 L178.551658,68.427196 L178.551658,58.4995176 L186.256229,58.4995176 C192.297198,58.4995176 195.490485,55.3086432 195.490485,49.270392 L195.490485,39.4046633 C195.490485,33.3280402 192.470691,30.0937085 186.751858,30.0502513 Z" id="Fill-9" fill="#FFFFFE"></path>
                    <path d="M218.7552,41.4258894 L207.099862,41.4258894 L207.146802,38.9428141 C207.0948,37.8230955 207.312932,36.9983317 207.796596,36.4902513 C208.277039,35.9840201 209.081919,35.7274372 210.190526,35.7274372 L216.043276,35.7274372 C216.924088,35.7274372 217.557315,35.9377889 217.980693,36.3691256 C218.481385,36.8804422 218.725288,37.7546734 218.70642,38.9964422 L218.7552,41.4258894 Z M224.068142,47.1016884 L224.068142,38.8244623 C224.068142,33.1241608 221.26786,30.1108141 215.976088,30.1108141 L210.352975,30.0502513 C204.60469,30.0937085 201.565567,33.1948945 201.565567,39.0186332 L201.565567,49.7331658 C201.543018,52.5791558 202.255858,54.7732864 203.686142,56.2531457 C205.118266,57.7362412 207.264152,58.4990553 210.069956,58.5212462 L223.148214,58.5212462 L223.148214,52.8454472 L210.005528,52.8454472 C207.975612,52.8454472 207.055684,51.8306734 207.02255,49.5810653 L207.068569,47.1016884 L224.068142,47.1016884 Z" id="Fill-10" fill="#FFFFFE"></path>
                    <path d="M232.750567,25.8894472 C233.426592,25.8894472 234.08513,26.0623518 234.728021,26.4127839 C235.374594,26.7590553 235.875746,27.2578894 236.233777,27.9088241 C236.593649,28.5574472 236.773584,29.2347337 236.773584,29.9379095 C236.773584,30.6355377 236.59687,31.3063518 236.24252,31.9494271 C235.889091,32.5915779 235.393462,33.0913367 234.753332,33.4477789 C234.114122,33.8046834 233.44546,33.9803618 232.750567,33.9803618 C232.052913,33.9803618 231.38333,33.8046834 230.745501,33.4477789 C230.10399,33.0913367 229.606981,32.5915779 229.251711,31.9494271 C228.898282,31.3063518 228.716505,30.6355377 228.716505,29.9379095 C228.716505,29.2347337 228.898282,28.5574472 229.260915,27.9088241 C229.622627,27.2578894 230.124239,26.7590553 230.770351,26.4127839 C231.411862,26.0623518 232.071781,25.8894472 232.750567,25.8894472 Z M232.750567,26.5607236 C232.184988,26.5607236 231.632295,26.7035779 231.09755,26.9971457 C230.560503,27.2888643 230.143107,27.705407 229.838458,28.2458492 C229.537491,28.7867538 229.387008,29.3503116 229.387008,29.9379095 C229.387008,30.5208844 229.53381,31.0798191 229.832476,31.6137889 C230.128841,32.1482211 230.543936,32.5652261 231.078682,32.8629548 C231.611126,33.162995 232.167961,33.311397 232.750567,33.311397 C233.329031,33.311397 233.886326,33.162995 234.419691,32.8629548 C234.954897,32.5652261 235.368612,32.1482211 235.663596,31.6137889 C235.959041,31.0798191 236.105843,30.5208844 236.105843,29.9379095 C236.105843,29.3503116 235.95766,28.7867538 235.655773,28.2458492 C235.355266,27.705407 234.935569,27.2888643 234.399903,26.9971457 C233.861476,26.7035779 233.310163,26.5607236 232.750567,26.5607236 Z M230.982501,32.1722613 L230.982501,27.8182111 L232.470769,27.8182111 C232.979283,27.8182111 233.347899,27.8584322 233.577076,27.939799 C233.805792,28.0216281 233.986188,28.1598593 234.121485,28.3595779 C234.258623,28.5602211 234.323971,28.773809 234.323971,28.9984925 C234.323971,29.3179497 234.211223,29.5948744 233.983427,29.8292663 C233.757472,30.0668945 233.458346,30.1991156 233.086049,30.2245427 C233.240214,30.2920402 233.361245,30.3660101 233.453283,30.4575477 C233.627697,30.6299899 233.841227,30.9170854 234.094794,31.3211457 L234.622637,32.1722613 L233.766676,32.1722613 L233.383794,31.4871156 C233.082827,30.9480603 232.838464,30.6110352 232.653006,30.474191 C232.524151,30.3729447 232.339153,30.3225528 232.092029,30.3225528 L231.681076,30.3225528 L231.681076,32.1722613 L230.982501,32.1722613 Z M231.681076,29.7238593 L232.530134,29.7238593 C232.935105,29.7238593 233.210301,29.6628342 233.359864,29.5407839 C233.508047,29.4182714 233.583058,29.2555377 233.583058,29.057206 C233.583058,28.9286834 233.547623,28.8140302 233.474913,28.7123216 C233.406344,28.6110754 233.306482,28.5338693 233.178548,28.4834774 C233.053835,28.4335477 232.819136,28.4090452 232.476291,28.4090452 L231.681076,28.4090452 L231.681076,29.7238593 Z" id="Fill-11" fill="#FFFFFE"></path>
                </g>
            </g>
        </g>
    </g>
</svg>