<?xml version="1.0" encoding="UTF-8"?>
<svg width="201px" height="50px" viewBox="0 0 201 50" version="1.1" xmlns="http://www.w3.org/2000/svg" xmlns:xlink="http://www.w3.org/1999/xlink">
    <!-- Generator: Sketch 52.5 (67469) - http://www.bohemiancoding.com/sketch -->
    <title>ROBIT</title>
    <desc>Created with Sketch.</desc>
    <g id="Page-1" stroke="none" stroke-width="1" fill="none" fill-rule="evenodd">
        <g id="Krabby-Desktop" transform="translate(-144.000000, -3164.000000)" fill="#FFFFFF">
            <g id="Group-14" transform="translate(140.000000, 3133.000000)">
                <path d="M36.924,80 L27.948,80 L27.948,65.72 C27.948,64.6319946 27.6646695,63.7480034 27.098,63.068 C26.5313305,62.3879966 25.5906732,62.048 24.276,62.048 L13.94,62.048 L13.94,80 L4.964,80 L4.964,32.4 L23.188,32.4 C25.6360122,32.4 27.789324,32.7399966 29.648,33.42 C31.506676,34.1000034 33.0593271,35.0406607 34.306,36.242 C35.5526729,37.4433393 36.5046634,38.8373254 37.162,40.424 C37.8193366,42.0106746 38.148,43.7106576 38.148,45.524 L38.148,47.156 C38.148,49.1053431 37.6266719,50.9299915 36.584,52.63 C35.5413281,54.3300085 33.9320109,55.6333288 31.756,56.54 L31.756,57.764 C33.3426746,57.9453342 34.600662,58.5573281 35.53,59.6 C36.459338,60.6426719 36.924,61.9573254 36.924,63.544 L36.924,80 Z M13.94,53.48 L22.508,53.48 C24.6840109,53.48 26.338661,52.9700051 27.472,51.95 C28.605339,50.9299949 29.172,49.490676 29.172,47.632 L29.172,46.816 C29.172,45.2293254 28.605339,43.8580058 27.472,42.702 C26.338661,41.5459942 24.6840109,40.968 22.508,40.968 L13.94,40.968 L13.94,53.48 Z M44.88,50.896 C44.88,44.7306358 46.4326511,39.948017 49.538,36.548 C52.6433489,33.147983 56.9386392,31.448 62.424,31.448 C67.9093608,31.448 72.2046511,33.147983 75.31,36.548 C78.4153489,39.948017 79.968,44.7306358 79.968,50.896 L79.968,61.504 C79.968,67.8506984 78.4153489,72.6786501 75.31,75.988 C72.2046511,79.2973499 67.9093608,80.952 62.424,80.952 C56.9386392,80.952 52.6433489,79.2973499 49.538,75.988 C46.4326511,72.6786501 44.88,67.8506984 44.88,61.504 L44.88,50.896 Z M62.424,72.792 C64.0560082,72.792 65.4159946,72.5313359 66.504,72.01 C67.5920054,71.4886641 68.4759966,70.7520048 69.156,69.8 C69.8360034,68.8479952 70.3119986,67.7146732 70.584,66.4 C70.8560014,65.0853268 70.992,63.6346746 70.992,62.048 L70.992,50.352 C70.992,48.8559925 70.8333349,47.4506732 70.516,46.136 C70.1986651,44.8213268 69.7000034,43.6880048 69.02,42.736 C68.3399966,41.7839952 67.4560054,41.0246695 66.368,40.458 C65.2799946,39.8913305 63.965341,39.608 62.424,39.608 C60.882659,39.608 59.5680054,39.8913305 58.48,40.458 C57.3919946,41.0246695 56.5080034,41.7839952 55.828,42.736 C55.1479966,43.6880048 54.6493349,44.8213268 54.332,46.136 C54.0146651,47.4506732 53.856,48.8559925 53.856,50.352 L53.856,62.048 C53.856,63.6346746 53.9919986,65.0853268 54.264,66.4 C54.5360014,67.7146732 55.0119966,68.8479952 55.692,69.8 C56.3720034,70.7520048 57.2559946,71.4886641 58.344,72.01 C59.4320054,72.5313359 60.7919918,72.792 62.424,72.792 Z M86.36,71.432 L90.848,71.432 L90.848,40.968 L86.36,40.968 L86.36,32.4 L107.236,32.4 C109.502678,32.4 111.508658,32.7173302 113.254,33.352 C114.999342,33.9866698 116.472661,34.8479946 117.674,35.936 C118.875339,37.0240054 119.781997,38.3273257 120.394,39.846 C121.006003,41.3646743 121.312,43.0079912 121.312,44.776 L121.312,45.592 C121.312,48.3120136 120.552674,50.4879918 119.034,52.12 C117.515326,53.7520082 115.600012,54.8853302 113.288,55.52 L113.288,56.744 C115.600012,57.3786698 117.515326,58.5233251 119.034,60.178 C120.552674,61.8326749 121.312,64.0199864 121.312,66.74 L121.312,67.556 C121.312,69.3240088 121.006003,70.9673257 120.394,72.486 C119.781997,74.0046743 118.875339,75.3193278 117.674,76.43 C116.472661,77.5406722 114.999342,78.4133302 113.254,79.048 C111.508658,79.6826698 109.502678,80 107.236,80 L86.36,80 L86.36,71.432 Z M99.824,71.432 L106.352,71.432 C108.25601,71.432 109.797327,71.0240041 110.976,70.208 C112.154673,69.3919959 112.744,68.0320095 112.744,66.128 L112.744,65.72 C112.744,63.8159905 112.154673,62.4560041 110.976,61.64 C109.797327,60.8239959 108.25601,60.416 106.352,60.416 L99.824,60.416 L99.824,71.432 Z M99.824,51.848 L106.352,51.848 C108.25601,51.848 109.797327,51.4513373 110.976,50.658 C112.154673,49.8646627 112.744,48.5160095 112.744,46.612 L112.744,46.204 C112.744,44.2999905 112.154673,42.9513373 110.976,42.158 C109.797327,41.3646627 108.25601,40.968 106.352,40.968 L99.824,40.968 L99.824,51.848 Z M129.744,32.4 L161.568,32.4 L161.568,40.968 L150.144,40.968 L150.144,71.432 L161.568,71.432 L161.568,80 L129.744,80 L129.744,71.432 L141.168,71.432 L141.168,40.968 L129.744,40.968 L129.744,32.4 Z M170.136,32.4 L204.408,32.4 L204.408,40.968 L191.76,40.968 L191.76,80 L182.784,80 L182.784,40.968 L170.136,40.968 L170.136,32.4 Z" id="ROBIT"></path>
            </g>
        </g>
    </g>
</svg>