<?xml version="1.0" encoding="UTF-8"?>
<svg width="228px" height="61px" viewBox="0 0 228 61" version="1.1" xmlns="http://www.w3.org/2000/svg" xmlns:xlink="http://www.w3.org/1999/xlink">
    <!-- Generator: Sketch 52.4 (67378) - http://www.bohemiancoding.com/sketch -->
    <title>logo-topaz</title>
    <desc>Created with Sketch.</desc>
    <g id="Page-1" stroke="none" stroke-width="1" fill="none" fill-rule="evenodd">
        <g id="Krabby-Desktop" transform="translate(-159.000000, -1087.000000)" fill="#FFFFFF">
            <g id="Group-11" transform="translate(-8.000000, 1009.000000)">
                <g id="Group-6" transform="translate(165.000000, 78.000000)">
                    <g id="Group-3">
                        <g id="logo-topaz" transform="translate(2.000000, 0.000000)">
                            <path d="M87.121644,49.2177125 C87.6320888,48.5954169 87.8885868,47.807596 87.8409016,47.0085494 L87.8409016,12.3611698 L99.420948,12.3611698 C101.116341,12.3611698 101.9589,11.5910028 102,10 L73.579052,10 C71.8836593,10 71.0411004,10.770167 71,12.3611698 L85.1590984,12.3611698 L85.1590984,49.9980133 C85.8963351,50.026747 86.6107482,49.742699 87.121644,49.2177125 Z" id="Path"></path>
                            <path d="M121.457516,21.2603949 C117.674312,19.5798684 113.325688,19.5798684 109.542484,21.2603949 C107.896997,22.0124123 106.488657,23.1783176 105.463558,24.6371662 C104.501483,25.9946543 103.990753,27.6058244 104.000127,29.2537669 L104.000127,39.817517 C103.996026,41.4646994 104.506283,43.0743778 105.463558,44.4341178 C106.483739,45.8834586 107.889934,47.036622 109.532105,47.7705694 C113.328071,49.4098102 117.66155,49.4098102 121.457516,47.7705694 C123.104334,47.0394523 124.514598,45.8858945 125.536442,44.4341178 C126.493717,43.0743778 127.003974,41.4646994 126.999873,39.817517 L126.999873,29.2537669 C127.009247,27.6058244 126.498517,25.9946543 125.536442,24.6371662 C124.508713,23.1806147 123.101084,22.0152985 121.457516,21.2603949 Z M124.643852,39.8679166 C124.66925,41.840316 123.734333,43.708588 122.121768,44.9078737 C118.124223,47.5431494 112.875777,47.5431494 108.878232,44.9078737 C107.265667,43.708588 106.33075,41.840316 106.356148,39.8679166 L106.356148,29.2537669 C106.324111,27.2545317 107.257388,25.3559646 108.878232,24.1230905 C112.863051,21.4479053 118.136949,21.4479053 122.121768,24.1230905 C123.742612,25.3559646 124.675889,27.2545317 124.643852,29.2537669 L124.643852,39.8679166 Z" id="Shape" fill-rule="nonzero"></path>
                            <path d="M150.131898,49.5233532 C152.988757,49.6849574 155.806205,48.7883309 158.059912,47.000337 C160.020779,45.2929682 161.101562,42.7680124 160.992468,40.1492198 L160.992468,29.4828099 C161.090963,26.829433 159.970373,24.2798044 157.958789,22.580412 C155.650317,20.7739037 152.780876,19.8644429 149.868979,20.0163711 C146.673104,20.0779913 143.632221,21.4245425 141.415127,23.7598708 L141.415127,20.0266273 C140.714677,19.960566 140.024692,20.2344024 139.55447,20.765071 C139.146886,21.4531874 138.956358,22.2511939 139.008408,23.0521955 L139.008408,61 C140.585921,60.9487192 141.354453,60.0769453 141.354453,58.3128852 C141.354453,58.3128852 141.354453,45.8824152 141.354453,45.9131837 C141.819617,46.3644549 143.84207,49.5233532 150.131898,49.5233532 Z M141.38479,29.1443565 C141.391181,27.8769747 141.810719,26.6473276 142.578037,25.6470048 C143.407254,24.5445382 144.495368,23.6701218 145.743175,23.1034763 C147.084764,22.4795 148.544765,22.1609406 150.020663,22.1701654 C152.297486,22.0426805 154.546862,22.7245571 156.381276,24.0983241 C157.930298,25.4130284 158.786522,27.3849597 158.696984,29.4315291 L158.696984,40.1799883 C158.765416,42.2005549 157.90182,44.1381193 156.361052,45.4208878 C154.574837,46.7924354 152.369514,47.4823284 150.131898,47.3695589 C147.875056,47.473765 145.650222,46.7975401 143.821845,45.4516563 C142.262561,44.2876176 141.354617,42.4306036 141.38479,40.4671609 L141.38479,29.1443565 Z" id="Shape" fill-rule="nonzero"></path>
                            <path d="M191.642228,49.985223 C192.28062,50.0039761 192.897771,49.7473337 193.345689,49.2768396 C193.812225,48.6940728 194.043294,47.9477854 193.990786,47.1933589 L193.990786,29.8067129 C194.108517,27.1236874 193.093448,24.5199858 191.208804,22.6707917 C189.117223,20.8206145 186.418763,19.8698595 183.669228,20.0143539 C182.036462,20.0192261 180.416753,20.3152567 178.881397,20.8894158 C177.465157,21.3721927 176.148918,22.1247991 175.000733,23.1083226 C174.151081,23.7332181 173.60945,24.7118825 173.519025,25.7855953 C173.531108,26.2033886 173.634484,26.612944 173.821414,26.9835966 C173.999504,27.3712312 174.24169,27.7237674 174.537069,28.025337 C176.22037,24.2438196 179.314821,22.3374348 183.729706,22.3374348 C185.859209,22.1956537 187.962882,22.8832105 189.626299,24.2646544 C191.050838,25.6831516 191.808601,27.6714501 191.702706,29.7129563 L191.702706,34.4007877 C191.702706,34.484127 189.233193,30.7026096 182.993892,30.7026096 C179.617211,30.7026096 176.946104,31.5776715 174.930175,33.3277952 C172.976244,35.0980816 171.901761,37.6866662 172.007078,40.3699598 C171.921342,43.0566017 173.036569,45.6345764 175.030972,47.3600374 C177.26938,49.1976336 180.078245,50.1307364 182.933414,49.985223 C188.981202,49.985223 191.642228,46.5370625 191.642228,46.5370625 L191.642228,49.985223 Z M189.344069,45.7036703 C187.409453,47.1110191 185.074374,47.8078759 182.711662,47.6829769 C180.536583,47.8173961 178.388048,47.1327328 176.663874,45.7557573 C175.179653,44.3981129 174.374558,42.4157118 174.476591,40.3699598 C174.379003,38.3149147 175.209292,36.3293318 176.724352,34.9945797 C178.48242,33.6234847 180.653744,32.9406635 182.852777,33.0673601 C185.183666,32.9342478 187.489472,33.6208951 189.394467,35.0154145 C190.971927,36.3039879 191.859476,38.2933836 191.783343,40.3699598 C191.85266,42.4509321 190.943884,44.4380598 189.344069,45.7036703 Z" id="Shape" fill-rule="nonzero"></path>
                            <path d="M206.266282,49 L227.999573,49 C228.011474,48.4226648 227.774393,47.8667982 227.345706,47.4669235 C226.816263,47.0442518 226.140233,46.8348916 225.456757,46.8819338 L208.383565,46.8819338 L208.549627,46.6802132 L227.449494,22.9982156 C227.642376,22.7386002 227.754092,22.4304209 227.771238,22.1106449 C227.774315,21.8122996 227.641308,21.5279399 227.407979,21.3340207 C227.142615,21.1059789 226.79667,20.9866878 226.442747,21.0011817 L205.000063,21.0011817 C204.995556,21.5771383 205.231472,22.1302747 205.65393,22.5342582 C206.186852,22.9506735 206.86029,23.159231 207.542879,23.1192479 L224.450009,23.1192479 L224.283948,23.3209685 L205.269913,46.9827941 C205.106649,47.2118811 205.013124,47.4810438 205.000063,47.7594184 C205.00153,48.0676364 205.137295,48.3608231 205.373702,48.5663007 C205.592664,48.8295318 205.918206,48.9877104 206.266282,49 Z" id="Path"></path>
                            <path d="M58.9485778,28.6740607 L50.5662353,8.76622694 C50.4807927,8.55668062 50.3096726,8.39213637 50.0947286,8.31283943 L29.8199377,0.0694300161 C29.6099691,-0.0231433387 29.3697969,-0.0231433387 29.1598283,0.0694300161 L8.91647125,8.31283943 C8.70549536,8.39816686 8.53644854,8.56071748 8.44496448,8.76622694 L0.0626220281,28.6740607 C-0.0208740094,28.8826606 -0.0208740094,29.1146293 0.0626220281,29.3232292 L8.44496448,49.2310629 C8.53946669,49.4369392 8.7071252,49.6018188 8.91647125,49.6947547 L29.1598283,57.9381641 C29.2629278,57.9795274 29.3732964,58.0005351 29.484644,57.9999896 C29.5993689,58.0003139 29.713125,57.9793382 29.8199377,57.9381641 L50.0528168,49.6947547 C50.2663903,49.607939 50.4360448,49.4410965 50.5243236,49.2310629 L58.9066661,29.3232292 C59.0143359,29.122675 59.0295906,28.8863962 58.9485778,28.6740607 Z M48.8792889,48.0872898 L38.5690077,46.7992571 L41.4504379,43.1309399 C41.7746528,42.7119187 42.1245674,42.3127453 42.4982307,41.9356456 L42.5925321,41.8429072 C42.9734727,41.4727489 43.3795551,41.1284802 43.8079717,40.812481 L47.5276362,37.978809 L48.8792889,48.0872898 Z M11.4102181,37.937592 L15.0984488,40.7506555 C15.5418662,41.0643949 15.9620425,41.4087382 16.3558002,41.7810816 L16.4396236,41.8532115 C16.8283839,42.2459081 17.1956301,42.6586616 17.539806,43.0897229 L20.4002804,46.7271273 L10.0899992,48.0872898 L11.4102181,37.937592 Z M10.0899992,9.96152131 L20.4002804,11.249554 L17.5188502,14.9178712 C17.1918635,15.3346762 16.8420834,15.7336962 16.4710574,16.1131656 C16.4345454,16.1386446 16.4026645,16.1699971 16.376756,16.2059039 C15.9871414,16.5706841 15.5779146,16.9146534 15.1508384,17.2363301 L11.4102181,20.0596978 L10.0899992,9.96152131 Z M47.55907,20.0596978 L43.8289276,17.2260259 C43.4060529,16.907313 43.0036305,16.5631804 42.6239658,16.1955997 L42.5191866,16.1028613 C42.1477073,15.7274053 41.7978956,15.3317896 41.4713938,14.9178712 L38.5794856,11.2392498 L48.8792889,9.96152131 L47.55907,20.0596978 Z M46.7941812,25.9640398 L43.912751,19.1117058 L47.3495114,21.718684 L46.7941812,25.9640398 Z M27.7976976,47.3041659 C28.336052,47.2336115 28.8786663,47.1991844 29.4217765,47.2011233 L29.5475116,47.2011233 C30.0906218,47.1991844 30.6332361,47.2336115 31.1715905,47.3041659 L35.8447464,47.8915089 L29.484644,55.9700501 L23.1245417,47.8915089 L27.7976976,47.3041659 Z M22.0872268,46.5622591 L19.4258331,43.1824612 L26.3936553,46.0264375 L22.0872268,46.5622591 Z M32.5651549,46.0264375 L39.5329771,43.1824612 L36.8715833,46.5622591 L32.5651549,46.0264375 Z M41.293269,40.6270043 L29.484644,45.4390946 L17.6655412,40.6270043 L12.7618708,29.003797 L17.6655412,17.3702855 L29.484644,12.5581953 L41.3037469,17.3702855 L46.2074172,29.003797 L41.293269,40.6270043 Z M31.1506346,10.7446452 C30.6192714,10.8148698 30.083649,10.8492974 29.5475116,10.8476878 L29.4112985,10.8476878 C28.8716693,10.8496388 28.3325386,10.8152106 27.7976976,10.7446452 L23.1140638,10.1573023 L29.484644,2.02723975 L35.897136,10.105781 L31.1506346,10.7446452 Z M36.8715833,11.486552 L39.5329771,14.8663499 L32.5756328,12.0223737 L36.8715833,11.486552 Z M26.3936553,12.0223737 L19.436311,14.8663499 L22.0872268,11.486552 L26.3936553,12.0223737 Z M37.5316928,9.96152131 L31.9155234,2.74853807 L46.5846227,8.74561842 L37.5316928,9.96152131 Z M21.4375953,9.96152131 L12.3427537,8.81774825 L27.0537647,2.74853807 L21.4375953,9.96152131 Z M15.0565371,19.1735313 L12.1751069,26.0258654 L11.6197767,21.7908138 L15.0565371,19.1735313 Z M10.8653659,27.4169407 C10.9350322,27.9605055 10.9735122,28.5074976 10.9806231,29.0553184 C10.9703822,29.0924296 10.9703822,29.131554 10.9806231,29.1686652 C10.9735122,29.716486 10.9350322,30.2634781 10.8653659,30.8070429 L10.2786019,35.3615266 L2.06390629,29.003797 L10.2786019,22.7491102 L10.8653659,27.4169407 Z M12.1751069,32.1569011 L15.0565371,38.998931 L11.6197767,36.3919527 L12.1751069,32.1569011 Z M21.4375953,48.0872898 L27.0537647,55.2281432 L12.3846654,49.2310629 L21.4375953,48.0872898 Z M37.5316928,48.0872898 L46.6370123,49.2310629 L31.967913,55.2281432 L37.5316928,48.0872898 Z M43.912751,38.8752798 L46.7941812,32.03325 L47.3495114,36.2683016 L43.912751,38.8752798 Z M48.1039222,30.6318704 C48.0321931,30.0920771 47.9971888,29.5481766 47.9991429,29.003797 L47.9991429,28.8904502 C47.9971888,28.3460707 48.0321931,27.8021701 48.1039222,27.2623768 L48.6906862,22.6975888 L56.9158597,28.9522757 L48.6906862,35.1966584 L48.1039222,30.6318704 Z M56.1614489,26.561687 L48.9107227,21.090124 L50.0737727,12.1357205 L56.1614489,26.561687 Z M8.89551539,12.1357205 L10.0585654,21.090124 L2.80783918,26.6132083 L8.89551539,12.1357205 Z M2.80783918,31.3943858 L10.0585654,36.9071658 L8.89551539,45.8615693 L2.80783918,31.3943858 Z M50.0737727,45.8203522 L48.9107227,36.8659488 L56.1614489,31.3531687 L50.0737727,45.8203522 Z" id="Shape" fill-rule="nonzero"></path>
                        </g>
                    </g>
                </g>
            </g>
        </g>
    </g>
</svg>