<?xml version="1.0" encoding="UTF-8"?>
<svg width="735px" height="189px" viewBox="0 0 735 189" version="1.1" xmlns="http://www.w3.org/2000/svg" xmlns:xlink="http://www.w3.org/1999/xlink">
    <!-- Generator: Sketch 52.5 (67469) - http://www.bohemiancoding.com/sketch -->
    <title>Page 1</title>
    <desc>Created with Sketch.</desc>
    <defs>
        <polygon id="path-1" points="0.0640572488 0.0632932135 97.2056385 0.0632932135 97.2056385 44.1629093 0.0640572488 44.1629093"></polygon>
        <polygon id="path-3" points="0.314310221 0.425124668 81.0272828 0.425124668 81.0272828 37.1359969 0.314310221 37.1359969"></polygon>
    </defs>
    <g id="Page-1" stroke="none" stroke-width="1" fill="none" fill-rule="evenodd">
        <g>
            <path d="M98.8222658,163.488142 C98.8222658,163.488142 99.3339461,163.299782 99.379589,163.860031 C99.4252318,164.422696 96.6818564,166.105859 95.2885483,166.757873 C93.8928381,167.414718 91.2431506,168.629396 89.7561546,168.723576 C88.2667564,168.815341 84.2213586,168.066732 83.6159903,168.443451 C83.010622,168.815341 81.5716711,170.638567 80.1759608,171.341293 C78.7802505,172.041605 77.1539238,172.696035 77.0602358,172.370027 C76.9665479,172.041605 78.2685702,170.684449 78.549634,169.938255 C78.8282956,169.189646 78.7802505,168.115029 78.5015889,168.020849 C78.2229273,167.929085 72.4094697,167.414718 70.3651505,167.880787 C68.3184291,168.349272 64.3667193,170.21838 63.2977157,170.404325 C62.2287121,170.590269 61.0179755,170.684449 61.0179755,170.21838 C61.0179755,169.75231 64.9720876,168.863639 64.9720876,168.300974 C64.9720876,167.740725 64.1337005,166.431866 62.5986594,165.825734 C61.0660206,165.217187 56.042905,163.113837 53.7175219,163.393962 C51.3921389,163.674086 47.2074103,167.880787 46.7894179,168.255092 C46.3714255,168.629396 46.0447188,169.518068 45.6723692,169.375591 C45.3024219,169.237943 45.6267264,166.620226 47.0224367,164.516876 C48.4181469,162.413525 49.9051429,161.290611 49.9507858,160.404355 C49.9988309,159.513268 47.2074103,157.083911 46.7894179,154.417896 C46.3714255,151.756711 45.9534331,148.810572 46.8831059,149.370821 C47.8127786,149.933486 49.0691581,153.765882 50.4168233,155.683287 C51.7644884,157.598278 53.4845032,160.167698 55.4855818,159.653331 C57.4842581,159.138964 63.8093961,155.260685 65.4837679,154.698021 C67.1557376,154.140186 71.5278421,152.97139 71.4341541,152.174483 C71.3404662,151.379992 69.0150831,148.436267 68.7364215,148.202025 C68.4577599,147.967783 69.6660943,147.501713 71.8977894,148.530447 C74.1318867,149.556766 77.8505778,150.865625 79.4312617,151.053985 C81.0119456,151.242344 89.5207336,151.942656 90.870801,152.362843 C92.2184662,152.78303 95.1948604,154.698021 96.4031948,156.195239 C97.6139314,157.692458 99.6126077,161.899158 99.5669649,162.365228 C99.5189198,162.833712 98.8222658,163.488142 98.8222658,163.488142" id="Fill-1" fill="#125A84"></path>
            <path d="M58.226587,129.668946 C58.226587,129.668946 58.7844274,129.465561 58.8373261,130.073323 C58.8878203,130.681084 55.8894279,132.499583 54.3649847,133.20784 C52.8405414,133.913705 49.9455419,135.229724 48.3201103,135.33022 C46.6946787,135.430716 42.2728315,134.621963 41.6115982,135.026339 C40.9527694,135.430716 39.377832,137.402352 37.8533887,138.16325 C36.3289455,138.919363 34.5496268,139.62762 34.4486385,139.275884 C34.3476501,138.919363 35.771105,137.454992 36.0764746,136.646239 C36.3794397,135.837486 36.3289455,134.674603 36.0235759,134.574107 C35.7206109,134.471219 29.3679625,133.913705 27.1317918,134.420971 C24.8980255,134.925843 20.5795712,136.95012 19.4109916,137.151112 C18.2424121,137.354496 16.9199456,137.454992 16.9199456,136.95012 C16.9199456,136.442854 21.2408044,135.483357 21.2408044,134.875595 C21.2408044,134.270227 20.3246958,132.853712 18.64877,132.198095 C16.9728442,131.537693 11.4858103,129.264569 8.94427004,129.56845 C6.40272979,129.869938 1.83180451,134.420971 1.37254794,134.825347 C0.918100348,135.229724 0.562236623,136.191614 0.155878721,136.038478 C-0.250479181,135.887734 0.102980059,133.057096 1.62742331,130.78158 C3.15186657,128.506064 4.77729818,127.292934 4.82779235,126.331043 C4.87828653,125.371546 1.83180451,122.741901 1.37254794,119.858623 C0.918100348,116.977738 0.458843784,113.792972 1.47594078,114.398341 C2.4906333,115.006102 3.86359402,119.150366 5.3375431,121.22489 C6.81149217,123.299414 8.68939467,126.079803 10.8750712,125.524683 C13.0583432,124.967169 19.9688321,120.770265 21.7986449,120.162504 C23.6260532,119.554742 28.4037641,118.291364 28.3027758,117.434756 C28.1993829,116.573361 25.6602472,113.388596 25.3548776,113.137356 C25.0495081,112.88133 26.3695701,112.376457 28.810122,113.489092 C31.2482695,114.601726 35.314253,116.018241 37.0406729,116.219233 C38.7670929,116.422617 48.0652349,117.17873 49.539184,117.635747 C51.0131331,118.090372 54.2639963,120.162504 55.5840584,121.780011 C56.9065249,123.39991 59.089797,127.94855 59.0393028,128.453423 C58.9888086,128.960688 58.226587,129.668946 58.226587,129.668946" id="Fill-3" fill="#125A84"></path>
            <path d="M608.153823,108.135912 C608.153823,108.135912 609.020493,107.818338 609.099499,108.768655 C609.178505,109.718972 604.529131,112.569922 602.166138,113.679026 C599.800751,114.78813 595.309389,116.845145 592.790778,117.003932 C590.26738,117.162719 583.413025,115.894828 582.388343,116.527571 C581.363661,117.162719 578.921662,120.249445 576.55867,121.435536 C574.193283,122.624034 571.437655,123.733138 571.279643,123.179789 C571.121631,122.624034 573.326613,120.328838 573.800648,119.060947 C574.272288,117.795462 574.193283,115.974222 573.721642,115.815435 C573.247607,115.656648 563.400606,114.78813 559.931532,115.57966 C556.464851,116.37119 549.768508,119.537309 547.956161,119.852477 C546.143815,120.170051 544.094452,120.328838 544.094452,119.537309 C544.094452,118.745779 550.793189,117.239707 550.793189,116.291796 C550.793189,115.339073 549.373478,113.123271 546.773468,112.095967 C544.173458,111.066256 535.664768,107.500764 531.724053,107.977125 C527.785731,108.45108 520.694359,115.57966 519.983306,116.209997 C519.274648,116.845145 518.724001,118.348811 518.094348,118.11063 C517.462301,117.874855 518.015342,113.440845 520.378335,109.877759 C522.741328,106.314672 525.262333,104.414038 525.343733,102.907966 C525.420344,101.404301 520.694359,97.2878648 519.983306,92.7744612 C519.274648,88.2610576 518.565989,83.2736985 520.141318,84.2240153 C521.716646,85.1719263 523.845016,91.6653572 526.131397,94.9132756 C528.415384,98.1587881 531.331418,102.513405 534.719092,101.642481 C538.106767,100.769152 548.822832,94.1987335 551.659859,93.2508225 C554.494493,92.3005057 561.901889,90.3204784 561.743878,88.9731937 C561.585866,87.6283149 557.647545,82.63855 557.175904,82.243988 C556.701869,81.8470202 558.751232,81.0554905 562.531542,82.7973371 C566.314246,84.5391837 572.617954,86.7549858 575.29697,87.07256 C577.975986,87.3901343 592.395749,88.5762259 594.679736,89.290768 C596.966117,90.0029042 602.008126,93.2508225 604.05749,95.781793 C606.10446,98.3175752 609.494528,105.443749 609.413128,106.235278 C609.336517,107.026808 608.153823,108.135912 608.153823,108.135912" id="Fill-5" fill="#125A84"></path>
            <path d="M257.704582,150.215638 C257.704582,150.215638 258.371364,149.97048 258.433502,150.703549 C258.493249,151.436617 254.910791,153.635822 253.089688,154.489065 C251.268585,155.344712 247.808011,156.931023 245.865023,157.053602 C243.922035,157.176181 238.640359,156.197955 237.851692,156.685866 C237.063026,157.176181 235.182175,159.558052 233.358682,160.473786 C231.537579,161.387117 229.415349,162.242764 229.291074,161.814941 C229.171579,161.387117 230.870797,159.618139 231.234062,158.642317 C231.599717,157.664092 231.537579,156.260446 231.174315,156.137868 C230.81105,156.015289 223.220731,155.344712 220.551214,155.955201 C217.879307,156.565691 212.719515,159.00765 211.321424,159.252807 C209.925723,159.495561 208.34839,159.618139 208.34839,159.00765 C208.34839,158.39716 213.508182,157.236268 213.508182,156.5032 C213.508182,155.772535 212.415998,154.063645 210.410873,153.270489 C208.408138,152.472526 201.852645,149.727727 198.817473,150.093059 C195.779912,150.460795 190.316603,155.955201 189.771706,156.443112 C189.224419,156.931023 188.799017,158.091915 188.313868,157.906846 C187.828718,157.724179 188.25173,154.306399 190.075223,151.559195 C191.896326,148.811992 193.839314,147.345856 193.899061,146.184964 C193.961199,145.026476 190.316603,141.851449 189.771706,138.371177 C189.224419,134.890906 188.679522,131.042898 189.891201,131.775966 C191.107659,132.511438 192.74474,137.51553 194.506096,140.01998 C196.267451,142.522026 198.511566,145.879719 201.123726,145.209142 C203.733495,144.538565 211.990596,139.469578 214.174964,138.738913 C216.361721,138.005845 222.0688,136.477217 221.946915,135.441308 C221.82503,134.402995 218.789858,130.554987 218.424204,130.249742 C218.060939,129.944498 219.640662,129.334008 222.553949,130.677566 C225.467236,132.021124 230.323511,133.732417 232.388383,133.975171 C234.453256,134.220328 245.561506,135.136063 247.322862,135.684062 C249.084217,136.234464 252.970193,138.738913 254.547526,140.690557 C256.124859,142.644605 258.737019,148.141415 258.674881,148.751905 C258.615134,149.362394 257.704582,150.215638 257.704582,150.215638" id="Fill-7" fill="#125A84"></path>
            <g id="Group-11" transform="translate(637.433628, 67.177719)">
                <mask id="mask-2" fill="white">
                    <use xlink:href="#path-1"></use>
                </mask>
                <g id="Clip-10"></g>
                <path d="M95.8661907,28.0613073 C95.8661907,28.0613073 96.7870611,27.7251549 96.8683847,28.7336122 C96.9521002,29.7396685 92.022454,32.7626394 89.5133813,33.9367719 C87.0043086,35.1133055 82.2420933,37.2934942 79.5655897,37.4615705 C76.889086,37.6272456 69.6177981,36.287438 68.5318886,36.9573418 C67.4435873,37.6272456 64.853191,40.9023309 62.3441183,42.1605015 C59.8374374,43.4186721 56.9121792,44.5952057 56.7471401,44.0069389 C56.5773172,43.4186721 58.918959,40.986369 59.4212519,39.6417592 C59.9235448,38.3019516 59.8374374,36.369075 59.3375364,36.2033999 C58.8352435,36.0329226 48.385159,35.1133055 44.7064613,35.9512855 C41.0301556,36.7892656 33.9262986,40.1459879 32.0032343,40.4821403 C30.0777781,40.8158917 27.9059593,40.986369 27.9059593,40.1459879 C27.9059593,39.3080079 35.0122081,37.7136848 35.0122081,36.7076285 C35.0122081,35.6991712 33.5077212,33.3485051 30.747502,32.2584108 C27.9896747,31.1683164 18.9627535,27.3914035 14.7817629,27.8956322 C10.6031643,28.3998609 3.08072988,35.9512855 2.32729051,36.6211893 C1.57385113,37.2934942 0.987842734,38.8878173 0.320510717,38.635703 C-0.34921317,38.3835886 0.236795232,33.6846576 2.74347607,29.9101458 C5.25254877,26.1308318 7.92666058,24.1187193 8.01276794,22.5243962 C8.09409155,20.9300732 3.08072988,16.5672946 2.32729051,11.7843255 C1.57385113,7.00135632 0.822803633,1.71175741 2.49472148,2.72021476 C4.16663933,3.72627102 6.4221737,10.6077919 8.84753092,14.0485523 C11.2704963,17.4893128 14.3631855,22.1066068 17.9581677,21.1821875 C21.5531498,20.2577683 32.9217128,13.2946104 35.9306865,12.2861531 C38.9396603,11.2800968 46.7969566,9.18154506 46.6295256,7.75529824 C46.4644865,6.32905142 42.283496,1.04185359 41.7835949,0.621663032 C41.281302,0.20147247 43.4531209,-0.636507567 47.4666805,1.20992982 C51.4778482,3.05636721 58.1655196,5.40463218 61.0094542,5.74078463 C63.8486052,6.07693708 79.1494041,7.33510768 81.5699776,8.09145069 C83.9953348,8.84539261 89.3435584,12.2861531 91.5201611,14.9729716 C93.6919799,17.657389 97.2869621,25.2112148 97.2056385,26.0491948 C97.1195311,26.8871748 95.8661907,28.0613073 95.8661907,28.0613073" id="Fill-9" fill="#125A84" mask="url(#mask-2)"></path>
            </g>
            <path d="M310.821368,110.204114 C310.821368,110.204114 311.432916,109.981909 311.488075,110.648523 C311.543235,111.312747 308.267258,113.303029 306.600491,114.077161 C304.933724,114.851292 301.768065,116.292037 299.99098,116.401945 C298.213895,116.514242 293.381469,115.627813 292.659603,116.069833 C291.937737,116.514242 290.215811,118.671775 288.549044,119.50086 C286.884675,120.329946 284.939714,121.104077 284.829395,120.717011 C284.716679,120.329946 286.273127,118.724339 286.606481,117.8403 C286.939834,116.956261 286.884675,115.682767 286.548923,115.572859 C286.217968,115.460563 279.275104,114.851292 276.831312,115.407998 C274.387519,115.959925 269.665412,118.172412 268.387158,118.394617 C267.108904,118.616821 265.665171,118.724339 265.665171,118.172412 C265.665171,117.620485 270.387278,116.569195 270.387278,115.904971 C270.387278,115.238358 269.387218,113.690095 267.554974,112.970917 C265.722729,112.25174 259.722367,109.762094 256.94762,110.094206 C254.168076,110.426318 249.170173,115.407998 248.668944,115.847628 C248.170113,116.292037 247.7816,117.343327 247.337929,117.176076 C246.894257,117.011215 247.282769,113.9123 248.947138,111.422654 C250.613905,108.933009 252.390991,107.604561 252.448548,106.553271 C252.503707,105.501982 249.170173,102.622881 248.668944,99.4714013 C248.170113,96.3175321 247.671282,92.8315509 248.781661,93.4933856 C249.892039,94.1576095 251.393329,98.6972698 253.002538,100.964711 C254.614146,103.232151 256.667028,106.276113 259.058059,105.669232 C261.444294,105.059962 268.998706,100.465348 270.998826,99.801124 C272.998947,99.1369001 278.219884,97.7534983 278.107168,96.8145054 C277.996849,95.8731233 275.219704,92.387142 274.88635,92.1099838 C274.552997,91.8352149 275.996729,91.2808985 278.663556,92.4970496 C281.330384,93.71559 285.771898,95.2638531 287.6617,95.4860575 C289.549104,95.7082619 299.712786,96.5373472 301.324394,97.0343206 C302.933603,97.5336832 306.490172,99.801124 307.933904,101.573981 C309.377636,103.344448 311.76627,108.323739 311.71111,108.875666 C311.655951,109.429982 310.821368,110.204114 310.821368,110.204114" id="Fill-12" fill="#125A84"></path>
            <path d="M375.826289,138.230506 C375.826289,138.230506 376.46479,137.997415 376.524799,138.694285 C376.582408,139.393558 373.152265,141.486571 371.40959,142.303591 C369.664513,143.118208 366.351989,144.629695 364.491695,144.747442 C362.631401,144.865189 357.5738,143.932825 356.820081,144.396604 C356.063961,144.865189 354.261276,147.133621 352.5186,148.005911 C350.773524,148.880603 348.740402,149.69522 348.622784,149.28671 C348.507566,148.880603 350.135023,147.191293 350.483078,146.261332 C350.831133,145.328968 350.773524,143.990497 350.425469,143.875153 C350.077414,143.757406 342.811464,143.118208 340.252659,143.699734 C337.696255,144.283663 332.756273,146.607364 331.419262,146.842858 C330.08225,147.075949 328.570011,147.191293 328.570011,146.607364 C328.570011,146.025838 333.512393,144.920458 333.512393,144.223588 C333.512393,143.524315 332.465827,141.895081 330.545523,141.140539 C328.62762,140.383594 322.350626,137.764324 319.443767,138.112759 C316.539307,138.463597 311.306479,143.699734 310.783196,144.165916 C310.262314,144.629695 309.854249,145.737478 309.388575,145.562059 C308.922902,145.389043 309.330966,142.128172 311.073642,139.508902 C312.818718,136.892035 314.679013,135.493489 314.736622,134.388109 C314.794231,133.282729 311.306479,130.259754 310.783196,126.941211 C310.262314,123.625071 309.73663,119.958093 310.900815,120.657366 C312.062599,121.356639 313.632447,126.126594 315.317514,128.512773 C317.00258,130.896549 319.153321,134.097346 321.654516,133.460551 C324.153312,132.818949 332.057763,127.988919 334.150894,127.289646 C336.244025,126.592776 341.70729,125.138961 341.589671,124.148925 C341.474453,123.161292 338.567593,119.491911 338.219538,119.201148 C337.869082,118.910385 339.381321,118.328859 342.170563,119.609658 C344.962205,120.890457 349.61174,122.519691 351.587253,122.752782 C353.565166,122.98347 364.201249,123.858162 365.886316,124.379613 C367.573783,124.903467 371.291971,127.289646 372.80421,129.154374 C374.31645,131.014296 376.815245,136.252837 376.755235,136.834363 C376.697626,137.415889 375.826289,138.230506 375.826289,138.230506" id="Fill-14" fill="#125A84"></path>
            <path d="M162.075789,135.94756 C162.075789,135.94756 162.785954,135.689705 162.850733,136.46568 C162.915511,137.244066 159.105572,139.579223 157.167013,140.487741 C155.228455,141.39626 151.548073,143.083163 149.482356,143.213296 C147.41664,143.341019 141.797699,142.304778 140.957977,142.825308 C140.118255,143.341019 138.114918,145.871375 136.178758,146.844959 C134.2402,147.818544 131.980147,148.727062 131.85059,148.271598 C131.723432,147.818544 133.530035,145.938851 133.918706,144.9002 C134.304978,143.861549 134.2402,142.369844 133.853927,142.239711 C133.465256,142.109579 125.391927,141.39626 122.551267,142.044513 C119.710607,142.692766 114.221224,145.288188 112.736115,145.546043 C111.248607,145.808718 109.569163,145.938851 109.569163,145.288188 C109.569163,144.637525 115.058547,143.408495 115.058547,142.627699 C115.058547,141.849314 113.897331,140.032277 111.766836,139.191235 C109.633942,138.347783 102.659449,135.427029 99.430118,135.817427 C96.2007865,136.205415 90.3899093,142.044513 89.8069022,142.562633 C89.2262943,143.083163 88.7752436,144.317013 88.257015,144.121814 C87.7411857,143.926615 88.1946357,140.294952 90.130795,137.374199 C92.0669544,134.455855 94.13507,132.896674 94.1998486,131.667644 C94.2646272,130.433794 90.3899093,127.059986 89.8069022,123.360847 C89.2262943,119.664117 88.6456864,115.5794 89.9364593,116.355376 C91.2296314,117.133761 92.9714551,122.452328 94.8452351,125.112817 C96.719015,127.773305 99.1062251,131.342312 101.884506,130.628993 C104.662787,129.913264 113.443881,124.52963 115.771111,123.751244 C118.093542,122.972859 124.165933,121.351021 124.036376,120.247304 C123.906819,119.145997 120.679887,115.05887 120.291215,114.733538 C119.902544,114.408207 121.581988,113.762363 124.681762,115.189002 C127.783936,116.618051 132.949427,118.430268 135.1447,118.692943 C137.339974,118.950798 149.158463,119.924382 151.032243,120.507569 C152.906023,121.093166 157.037456,123.751244 158.716901,125.828546 C160.396345,127.903438 163.174626,133.742535 163.109847,134.390789 C163.045068,135.039042 162.075789,135.94756 162.075789,135.94756" id="Fill-16" fill="#125A84"></path>
            <g id="Group-20" transform="translate(438.298162, 0.000000)">
                <mask id="mask-4" fill="white">
                    <use xlink:href="#path-3"></use>
                </mask>
                <g id="Clip-19"></g>
                <path d="M79.9154952,23.734051 C79.9154952,23.734051 80.6782788,23.4541856 80.7478408,24.2913691 C80.8174028,25.1309653 76.7204393,27.6449285 74.6359772,28.6220447 C72.5539138,29.6015735 68.5936756,31.4182859 66.3724881,31.555806 C64.1489019,31.6981513 58.1066004,30.5786898 57.202294,31.1384205 C56.3003863,31.6981513 54.1463622,34.4220135 52.0642988,35.4690961 C49.9798367,36.5185913 47.5475644,37.4957075 47.410839,37.0059431 C47.271715,36.5185913 49.217053,34.4919799 49.6320265,33.3725183 C50.0493987,32.2554694 49.9798367,30.6486561 49.5624645,30.511136 C49.1450923,30.3687907 40.4642311,29.6015735 37.4082993,30.301237 C34.3523675,30.9984878 28.4467913,33.7923164 26.8492633,34.0721818 C25.2541341,34.3496345 23.4479201,34.4919799 23.4479201,33.7923164 C23.4479201,33.0950656 29.3510976,31.765705 29.3510976,30.9285215 C29.3510976,30.091338 28.1013798,28.1346929 25.8082316,27.2251304 C23.5174821,26.3179805 16.014378,23.1743202 12.5434727,23.5917057 C9.07016871,24.0115037 2.81918105,30.301237 2.1931228,30.8585551 C1.56946325,31.4182859 1.08252906,32.7428212 0.526032845,32.5353348 C-0.0280646799,32.3278484 0.458869509,28.4121457 2.54093294,25.270898 C4.62539506,22.1272377 6.84898123,20.450458 6.91614457,19.12351 C6.98570659,17.7941495 2.81918105,14.1607247 2.1931228,10.1798809 C1.56946325,6.19662444 0.943405007,1.79598253 2.33224686,2.63557868 C3.72108871,3.47517483 5.59686474,9.20276469 7.61176484,12.0665596 C9.62666493,14.9327672 12.1956625,18.7712657 15.1820323,18.0040485 C18.1684021,17.2368313 27.6144456,11.4368625 30.1162799,10.599679 C32.6157155,9.76008282 39.1449513,8.0133368 39.0058272,6.82632155 C38.8667032,5.6393063 35.3933992,1.23866439 34.9784257,0.888832659 C34.5610536,0.541413561 36.3672676,-0.158249901 39.6990488,1.37618445 C43.0356274,2.91544406 48.5909948,4.87208912 50.9513063,5.14954188 C53.3140166,5.42940726 66.024678,6.47890245 68.0371794,7.10618694 C70.0520795,7.73588405 74.4968531,10.599679 76.3030671,12.8337768 C78.1092812,15.0702872 81.0956509,21.3576079 81.0260889,22.0572713 C80.9565269,22.7545221 79.9154952,23.734051 79.9154952,23.734051" id="Fill-18" fill="#125A84" mask="url(#mask-4)"></path>
            </g>
            <path d="M396.221846,79.6142168 C396.221846,79.6142168 396.941575,79.3520659 397.008527,80.1433287 C397.073087,80.9321864 393.211417,83.3011646 391.248302,84.2223003 C389.285187,85.145841 385.55503,86.8558344 383.460403,86.9857073 C381.365776,87.1179853 375.672503,86.0669767 374.821262,86.5912784 C373.970021,87.1179853 371.942346,89.6841779 369.979231,90.6750601 C368.016116,91.6611322 365.725416,92.584673 365.593904,92.1204975 C365.462392,91.6611322 367.296387,89.7515194 367.688531,88.6981057 C368.080676,87.6470971 368.016116,86.1319131 367.623971,85.9996351 C367.229435,85.8697622 359.049391,85.145841 356.170474,85.8024207 C353.289167,86.4614055 347.727406,89.0925346 346.223387,89.3570905 C344.716977,89.6192414 343.016886,89.7515194 343.016886,89.0925346 C343.016886,88.4359548 348.578647,87.1829217 348.578647,86.394064 C348.578647,85.6052063 347.402213,83.7629349 345.240634,82.9067357 C343.081447,82.0505365 336.013276,79.08751 332.742215,79.4819388 C329.468763,79.8787727 323.579418,85.8024207 322.991201,86.3291275 C322.400592,86.8558344 321.943887,88.1064624 321.417839,87.909248 C320.896574,87.7120336 321.353279,84.0250858 323.316394,81.0644644 C325.2819,78.1014378 327.374136,76.5213174 327.438696,75.2706893 C327.505648,74.0200612 323.579418,70.5976694 322.991201,66.8433801 C322.400592,63.093901 321.812375,58.9451828 323.120321,59.7340405 C324.430659,60.5253033 326.19531,65.9246495 328.093865,68.6231201 C329.992419,71.3215907 332.41224,74.943602 335.228987,74.2172757 C338.040952,73.4933544 346.943116,68.0314768 349.298376,67.237809 C351.653636,66.4489513 357.806005,64.8038943 357.674493,63.6855442 C357.545372,62.5671941 354.27192,58.418476 353.879775,58.0913887 C353.485239,57.7618963 355.187721,57.1029115 358.329662,58.550754 C361.471602,60.0010015 366.705778,61.8408678 368.931917,62.1054238 C371.158056,62.3699797 383.132819,63.3560518 385.031373,63.9476951 C386.929928,64.5393384 391.116791,67.237809 392.819273,69.3446363 C394.521755,71.4514636 397.33372,77.3775166 397.269159,78.0365014 C397.204599,78.6930811 396.221846,79.6142168 396.221846,79.6142168" id="Fill-21" fill="#125A84"></path>
            <path d="M485.28471,68.5861402 C485.28471,68.5861402 486.004461,68.3239936 486.069023,69.1128385 C486.133586,69.9016834 482.27419,72.2706232 480.308624,73.1917439 C478.347841,74.1152696 474.61757,75.8276403 472.522879,75.9575111 C470.428189,76.0897869 464.734743,75.0363904 463.883476,75.5606836 C463.032209,76.0897869 461.004472,78.6559379 459.038906,79.6443991 C457.078123,80.6328602 454.787354,81.553981 454.655838,81.0922181 C454.524322,80.6328602 456.355981,78.7232783 456.748137,77.6674768 C457.142685,76.6164852 457.078123,75.1013258 456.683575,74.96905 C456.291418,74.8391792 448.111125,74.1152696 445.232122,74.7718387 C442.350726,75.4308128 436.788797,78.0618992 435.282341,78.3288559 C433.778277,78.5910025 432.075743,78.7232783 432.075743,78.0618992 C432.075743,77.4053301 437.640064,76.1547223 437.640064,75.3634724 C437.640064,74.5746275 436.461202,72.732386 434.301949,71.8762007 C432.142696,71.0224204 425.074311,68.0570369 421.800759,68.4538644 C418.529599,68.8482868 412.640075,74.7718387 412.049449,75.298537 C411.461214,75.8276403 411.002103,77.0758431 410.478431,76.8786319 C409.957149,76.6814206 410.413868,72.9945327 412.377043,70.0339592 C414.340218,67.0709808 416.434908,65.4908859 416.499471,64.2402781 C416.566424,62.9896703 412.640075,59.567334 412.049449,55.8131056 C411.461214,52.0636873 410.870587,47.9150364 412.180965,48.7062864 C413.488951,49.4975363 415.256047,54.8943899 417.154659,57.5928167 C419.053271,60.2912435 421.473165,63.9131961 424.287607,63.1868816 C427.102048,62.4629721 436.004483,57.001183 438.359815,56.2099331 C440.715146,55.4186832 446.867702,53.7760579 446.736186,52.655321 C446.60467,51.536989 443.333509,47.3907432 442.941353,47.0612561 C442.546805,46.7317691 444.249339,46.0752 447.391375,47.520614 C450.531019,48.970838 455.767746,50.8130795 457.991561,51.0776311 C460.217768,51.3397778 472.195285,52.3258339 474.091506,52.9174676 C475.990118,53.5115063 480.179499,56.2099331 481.882033,58.3167262 C483.582176,60.4211143 486.396618,66.3470713 486.329664,67.0060454 C486.265102,67.6626145 485.28471,68.5861402 485.28471,68.5861402" id="Fill-23" fill="#125A84"></path>
            <path d="M637.981685,56.8085197 C637.981685,56.8085197 638.982247,56.4470851 639.071026,57.5337826 C639.162204,58.6228737 633.801877,61.8829662 631.076124,63.1515779 C628.350372,64.4225831 623.172401,66.7778922 620.266691,66.9598063 C617.358582,67.1393269 609.454859,65.6911947 608.274339,66.4164576 C607.09142,67.1393269 604.276888,70.6746842 601.551136,72.0342529 C598.825383,73.3938215 595.646138,74.6624332 595.463781,74.0281274 C595.283824,73.3938215 597.82722,70.7656412 598.371891,69.3175091 C598.916561,67.8645897 598.825383,65.7821518 598.280712,65.6002377 C597.736042,65.4207171 586.379539,64.4225831 582.382088,65.3297601 C578.384637,66.2345435 570.660871,69.8584642 568.573367,70.2222925 C566.483463,70.5837271 564.120025,70.7656412 564.120025,69.8584642 C564.120025,68.9536808 571.84379,67.2302839 571.84379,66.1435864 C571.84379,65.0544953 570.207379,62.5196656 567.210491,61.3420111 C564.211203,60.1619629 554.402332,56.0832568 549.857811,56.6289992 C545.31569,57.1699543 537.138432,65.3297601 536.322626,66.0526293 C535.50442,66.7778922 534.868571,68.5012892 534.141544,68.228418 C533.414516,67.9555468 534.050365,62.8811003 536.776118,58.8023942 C539.501871,54.7260818 542.407581,52.5502931 542.501158,50.8268962 C542.589937,49.1058929 537.138432,44.392881 536.322626,39.2274774 C535.50442,34.0620738 534.686214,28.3509279 536.504982,29.4376254 C538.321351,30.5291101 540.773569,37.9588658 543.408143,41.6737436 C546.042717,45.3886214 549.404319,50.3745045 553.310592,49.3787641 C557.216864,48.38063 569.57153,40.8575237 572.844353,39.7708262 C576.112377,38.6841287 584.651949,36.417383 584.471992,34.8782938 C584.289635,33.3344174 579.747514,27.6280586 579.202843,27.1732733 C578.655773,26.7208816 581.019212,25.8137046 585.381376,27.8075791 C589.74114,29.8014537 597.009014,32.3386769 600.097081,32.7025052 C603.187547,33.0639398 619.8108,34.4235085 622.445374,35.2397284 C625.082348,36.0559483 630.893768,39.7708262 633.257206,42.6718777 C635.618246,45.5729292 639.526918,53.7279477 639.43334,54.6351247 C639.344561,55.5399081 637.981685,56.8085197 637.981685,56.8085197" id="Fill-25" fill="#125A84"></path>
            <path d="M503.032382,122.124351 C503.032382,122.124351 503.931638,121.794865 504.015568,122.78092 C504.097101,123.766975 499.269898,126.720332 496.814332,127.867523 C494.361163,129.017119 489.697025,131.150366 487.080792,131.313907 C484.46216,131.479853 477.344854,130.166715 476.282534,130.820879 C475.217816,131.479853 472.683115,134.67852 470.227548,135.907482 C467.77438,137.138849 464.911151,138.288445 464.748086,137.711242 C464.585021,137.138849 466.875124,134.760291 467.364319,133.447153 C467.855912,132.134016 467.77438,130.248486 467.282787,130.084945 C466.793592,129.918999 456.568459,129.017119 452.96904,129.837229 C449.369621,130.657338 442.41538,133.940181 440.532939,134.267263 C438.650497,134.59675 436.525857,134.760291 436.525857,133.940181 C436.525857,133.117667 443.4777,131.561623 443.4777,130.575568 C443.4777,129.589512 442.005319,127.292725 439.305155,126.227304 C436.607389,125.161883 427.770707,121.470188 423.682093,121.960811 C419.591081,122.453838 412.229177,129.837229 411.492987,130.491392 C410.756796,131.150366 410.183671,132.708814 409.529013,132.463503 C408.874355,132.215787 409.447481,127.622212 411.900649,123.930516 C414.356216,120.238821 416.972449,118.26671 417.053982,116.710667 C417.137912,115.152218 412.229177,110.88332 411.492987,106.207974 C410.756796,101.530224 410.018208,96.3618506 411.656052,97.347906 C413.291497,98.3315563 415.500069,105.058378 417.871705,108.425397 C420.245739,111.787605 423.272032,116.29941 426.789919,115.39753 C430.307806,114.49565 441.434592,107.684652 444.379353,106.701002 C447.324115,105.717352 455.012148,103.66347 454.849083,102.270968 C454.686018,100.87606 450.595006,95.707687 450.103413,95.2964297 C449.614218,94.8875775 451.741257,94.065063 455.666806,95.8712279 C459.594753,97.6749877 466.138934,99.9717753 468.918233,100.301262 C471.702327,100.628344 486.670732,101.859711 489.044766,102.59805 C491.416402,103.336389 496.651267,106.701002 498.778305,109.327276 C500.905344,111.953551 504.423231,119.336941 504.341698,120.157051 C504.260166,120.974755 503.032382,122.124351 503.032382,122.124351" id="Fill-27" fill="#125A84"></path>
            <path d="M210.823595,95.8968508 C210.823595,95.8968508 211.386724,95.6896429 211.437047,96.3088572 C211.489765,96.9280714 208.465641,98.7808954 206.929616,99.5037136 C205.391194,100.224122 202.472507,101.563745 200.833441,101.667349 C199.191979,101.770953 194.73487,100.946941 194.0687,101.358947 C193.40253,101.770953 191.813787,103.777979 190.277762,104.551394 C188.73934,105.324809 186.946912,106.045218 186.843871,105.683809 C186.743227,105.324809 188.176211,103.830985 188.482937,103.004563 C188.792059,102.18055 188.73934,100.997538 188.432615,100.893934 C188.125889,100.79033 181.720592,100.224122 179.465679,100.739733 C177.213161,101.255343 172.856697,103.315375 171.67772,103.520173 C170.498743,103.727381 169.168799,103.830985 169.168799,103.315375 C169.168799,102.799765 173.522867,101.821551 173.522867,101.202336 C173.522867,100.583122 172.600294,99.1423045 170.910906,98.472493 C169.219121,97.8026814 163.686076,95.4848444 161.124437,95.7932469 C158.560401,96.1040587 153.94993,100.739733 153.489841,101.151739 C153.027356,101.563745 152.667912,102.541959 152.260542,102.387758 C151.850775,102.233557 152.207823,99.3495124 153.746244,97.0316754 C155.28227,94.711429 156.921335,93.4754098 156.974054,92.4971959 C157.024376,91.5189819 153.94993,88.8373264 153.489841,85.9026845 C153.027356,82.9656332 152.567267,79.7201795 153.592882,80.3393938 C154.6161,80.9561986 156.001158,85.1822757 157.486861,87.2929048 C158.972564,89.4059434 160.868033,92.2369813 163.070228,91.6731831 C165.27482,91.1069755 172.240849,86.8278918 174.085996,86.2110869 C175.931144,85.5942821 180.747697,84.3052563 180.644656,83.4282369 C180.541615,82.5536269 177.979976,79.3081732 177.67325,79.050368 C177.366524,78.7925628 178.698864,78.2793619 181.157463,79.4117771 C183.616062,80.5441923 187.716122,81.9874193 189.455833,82.1946272 C191.200335,82.3994257 200.577038,83.1728411 202.062741,83.6354448 C203.548443,84.1004578 206.826575,86.2110869 208.158915,87.8591124 C209.491255,89.5095473 211.69345,94.1452214 211.643128,94.6584223 C211.590409,95.1740326 210.823595,95.8968508 210.823595,95.8968508" id="Fill-29" fill="#125A84"></path>
            <path d="M324.346636,178.568456 C324.346636,178.568456 324.947422,178.349471 325.002474,179.004045 C325.057526,179.656239 321.830995,181.612821 320.191399,182.374507 C318.549411,183.136194 315.432983,184.550074 313.683284,184.659566 C311.933585,184.766679 307.177562,183.8955 306.464278,184.331089 C305.753388,184.766679 304.058741,186.887499 302.419146,187.703932 C300.779551,188.520364 298.864695,189.27967 298.756984,188.898827 C298.64688,188.520364 300.176371,186.942245 300.506684,186.071066 C300.834603,185.202268 300.779551,183.952626 300.451632,183.843134 C300.121319,183.733641 293.287678,183.136194 290.882141,183.678895 C288.476603,184.223977 283.828291,186.397163 282.569274,186.616148 C281.31265,186.832753 279.89087,186.942245 279.89087,186.397163 C279.89087,185.854462 284.539182,184.821425 284.539182,184.169231 C284.539182,183.514657 283.555425,181.991284 281.750673,181.286724 C279.945922,180.579784 274.038592,178.130486 271.305136,178.458963 C268.571679,178.78506 263.650501,183.678895 263.159819,184.114485 C262.666743,184.550074 262.283772,185.580731 261.845749,185.418873 C261.407726,185.257014 261.790697,182.210269 263.432686,179.763351 C265.072281,177.318814 266.82198,176.012046 266.877032,174.979009 C266.932084,173.945971 263.650501,171.118211 263.159819,168.016719 C262.666743,164.919988 262.173668,161.492399 263.267529,162.146973 C264.361391,162.799167 265.838223,167.257413 267.422766,169.487726 C269.009703,171.715659 271.032269,174.707658 273.382754,174.10783 C275.735633,173.510382 283.172453,168.99739 285.139968,168.345196 C287.107482,167.693002 292.248869,166.331488 292.138765,165.407943 C292.031054,164.484398 289.295204,161.05919 288.967285,160.785459 C288.639366,160.514108 290.061146,159.971407 292.684499,161.166302 C295.310244,162.361198 299.685689,163.886951 301.545493,164.103555 C303.402903,164.32254 313.410417,165.136592 314.99496,165.626928 C316.581897,166.117264 320.081295,168.345196 321.503076,170.085174 C322.924856,171.825151 325.275341,176.718986 325.220289,177.261687 C325.165237,177.806769 324.346636,178.568456 324.346636,178.568456" id="Fill-31" fill="#125A84"></path>
        </g>
    </g>
</svg>